<?xml version="1.0" encoding="UTF-8"?>
<!DOCTYPE svg PUBLIC "-//W3C//DTD SVG 1.1//EN" "http://www.w3.org/Graphics/SVG/1.1/DTD/svg11.dtd">
<!-- Creator: CorelDRAW -->
<svg xmlns="http://www.w3.org/2000/svg" xml:space="preserve" width="172px" height="60px" style="shape-rendering:geometricPrecision; text-rendering:geometricPrecision; image-rendering:optimizeQuality; fill-rule:evenodd; clip-rule:evenodd"
viewBox="0 0 172 60.0003"
 xmlns:xlink="http://www.w3.org/1999/xlink">
 <defs>
  <style type="text/css">
   <![CDATA[
    .fil0 {fill:none}
    .fil4 {fill:#393583}
    .fil6 {fill:#829949}
    .fil5 {fill:#AE7A35}
    .fil7 {fill:#C5C6C6}
    .fil3 {fill:#E22229}
    .fil1 {fill:#F3A610}
    .fil2 {fill:#FEFEFE}
    .fil8 {fill:#FEFEFE;fill-rule:nonzero}
   ]]>
  </style>
 </defs>
 <g id="Layer_x0020_1">
  <metadata id="CorelCorpID_0Corel-Layer"/>
  <g id="_217681936">
   <rect id="_217244248" class="fil0" x="0.775772" y="-0.0776711" width="171.59" height="59.5674"/>
   <path id="_217244224" class="fil1" d="M14.8512 34.1789c-0.414569,-3.23742 2.28544,-5.79806 5.43782,-6.10633 3.55513,-0.347246 6.46184,2.05631 6.77011,4.86262 0.361419,3.27521 -2.24647,5.79215 -5.39884,6.11932 -3.6012,0.374411 -6.44412,-2.02442 -6.80909,-4.87561l0 0zm23.8277 -3.12875l0.39449 0.00118111c-0.0779531,0.268111 -0.24567,0.506695 -0.308269,0.727562 -0.126379,0.448821 0.264568,0.374411 0.122835,0.727562 -0.0519687,0.125197 -0.302364,0.50079 -0.395671,0.656696 -0.147638,0.251576 -0.27756,0.452364 -0.411026,0.686224 -0.835043,1.45512 -1.62284,2.37757 -2.74844,3.63073 -0.17008,0.187796 -0.325986,0.370868 -0.497246,0.562207 -0.184253,0.204332 -0.366143,0.366143 -0.539766,0.572837l-1.05237 1.11733c-0.338978,0.328348 -0.688586,0.765358 -1.03819,1.13268 -0.419293,0.440553 -3.2882,3.59647 -3.67325,3.85395 -0.243308,0.162993 -0.464175,0.244489 -0.715751,0.414569 -0.699216,0.474805 -0.361419,0.132284 -0.754728,0.329529 -0.125197,0.0625987 -0.175985,0.124016 -0.321261,0.192521l-1.17048 0.486616c-0.361419,0.14882 -1.53898,1.30158 -2.34804,0.535042 -0.37323,-0.354332 -0.592916,-1.01811 -0.305907,-1.57914 0.510239,-0.994493 1.12087,-1.83898 1.85434,-2.41655 0.121654,-0.0968508 0.134646,-0.118111 0.265749,-0.240946l0.925988 -0.705121 1.61576 -1.62284c0.770082,-0.699216 2.59607,-2.7508 3.22915,-3.2445l1.65591 -1.58623c0.813783,-0.79961 0.610633,-0.503152 1.1752,-1.00867l1.02402 -1.14449c0.674413,-0.780712 1.3252,-1.65473 1.94883,-2.33033 0.663783,-0.720476 1.37363,-1.37835 2.11891,-2.22639 0.167717,-0.192521 0.877563,-0.974414 1.11851,-1.06418 0.27756,0.263387 0.259844,0.555121 0.132284,0.934256 -0.121654,0.361419 -0.382679,0.777169 -0.433467,0.921264 -0.192521,0.566932 0.329529,0.209056 -0.354332,0.87402 -0.200788,0.196064 -0.124016,0.076772 -0.307088,0.348427 -0.181891,0.271655 -0.257481,0.0968508 -0.207875,0.464175l0.00118111 0zm0.765358 -16.4753c-0.324805,-3.20435 2.39529,-5.7579 5.57483,-5.99767 3.59293,-0.271655 6.41932,2.16969 6.66499,5.03742 0.274017,3.19844 -2.38111,5.74727 -5.61853,5.97522 -3.56104,0.249214 -6.32956,-2.15552 -6.62129,-5.01498zm-13.3146 -6.85161c0.268111,-0.109843 0.354332,-0.0566932 0.738192,0.30945 0.194883,0.185434 0.347246,0.411026 0.576381,0.633074l2.39056 2.36812c0.525593,0.399214 0.838587,0.440553 1.35827,1.03347 0.223229,0.255119 0.402758,0.27756 0.654334,0.517325l1.54371 1.44568c0.154725,0.185434 0.129922,0.162993 0.303545,0.303545 0.424018,0.348427 0.614176,0.90591 1.12678,1.24489 0.399214,0.264568 0.981501,1.12441 1.44922,1.5319 0.13819,0.121654 0.227954,0.144095 0.359057,0.251576l1.43741 1.54253c0.559845,0.561026 0.900004,0.835043 1.50355,1.48465 0.220867,0.238584 0.338978,0.340159 0.576381,0.634255 0.166536,0.205513 0.386222,0.333072 0.620082,0.592916 0.506695,0.559845 0.741736,0.696854 1.18938,1.19056 0.71457,0.785437 0.464175,0.474805 1.2189,1.16103 0.766539,0.695672 2.08938,1.60276 0.715751,2.8571 -0.979138,0.894099 -2.59135,-0.269293 -3.47954,-0.801972l-1.51418 -0.897642c-0.877563,-0.55394 -1.05945,-2.21576 -2.55474,-3.32364 -0.550396,-0.407482 -0.771263,-0.897642 -1.32166,-1.35709 -0.0933075,-0.0779531 -0.0673231,-0.0685043 -0.153544,-0.150001 -0.142914,-0.137009 -0.209056,-0.140552 -0.337797,-0.272836l-1.16457 -1.25788c-0.210237,-0.193702 -0.419293,-0.34134 -0.611814,-0.555121 -0.191339,-0.211418 -0.363781,-0.455908 -0.579924,-0.631893 -0.370868,-0.301182 -0.86339,-0.839768 -1.13859,-1.23426 -0.0779531,-0.112205 -0.137009,-0.250395 -0.205513,-0.343702l-0.846854 -0.967327c-0.216143,-0.194883 -0.433467,-0.359057 -0.64016,-0.577562 -0.109843,-0.113386 -0.191339,-0.167717 -0.331891,-0.27756l-1.97127 -2.16851c-0.0578743,-0.153544 -0.0897642,-0.660239 -0.401577,-1.3193 -0.0909453,-0.191339 -0.0720476,-0.269293 -0.141733,-0.448821 -0.15945,-0.414569 -0.324805,-0.380317 -0.00236222,-0.846854 0.179528,-0.259844 0.193702,-0.62953 -0.0153544,-0.868114 -0.155906,-0.177166 -0.178347,-0.022441 -0.272836,-0.328348 -0.0389766,-0.126379 -0.115749,-0.338978 -0.0744098,-0.474805l-0.00118111 0.00118111zm-19.5662 23.5749c0.180709,0.238584 0.477168,0.308269 0.825594,0.747641 0.109843,0.13819 0.200788,0.252757 0.35197,0.402758 0.186615,0.184253 0.263387,0.209056 0.451183,0.3626 0.172442,0.142914 0.196064,0.23504 0.374411,0.38386 0.421655,0.355513 0.82087,0.765358 1.14922,1.22481 0.203151,0.283466 0.529136,0.478349 0.829138,0.742917l1.54607 1.58859c0.497246,0.562207 1.14804,1.18111 1.50827,1.62284l0.777169 0.790161c0.193702,0.157087 0.262206,0.162993 0.42638,0.336616 0.178347,0.186615 0.192521,0.214962 0.353151,0.451183 0.144095,0.212599 1.46575,1.26379 1.62993,1.51182 0.486616,0.734649 1.0193,1.05237 1.52127,1.60985 0.359057,0.398033 1.4126,1.26497 1.55079,1.58623 0.173623,0.40512 0.0862209,0.849216 -0.111024,1.18819 -0.218505,0.377954 -0.452364,0.485435 -0.9378,0.648428 -0.484254,0.161812 -0.909453,-0.00354332 -1.30985,-0.145276 -0.340159,-0.120473 -0.823232,-0.359057 -1.07599,-0.524412 -0.943705,-0.616538 -2.13662,-1.11851 -2.77442,-1.97363 -0.190158,-0.2563 -0.119292,-0.382679 -0.483073,-1.05237 -0.185434,-0.340159 -0.509057,-0.545672 -0.748822,-0.817327l-1.07008 -1.24843c-0.153544,-0.147638 -0.28819,-0.238584 -0.432285,-0.380317l-1.14449 -1.17993c-0.152363,-0.139371 -0.278741,-0.227954 -0.435829,-0.376773 -0.28819,-0.272836 -1.37953,-1.47875 -1.54253,-1.57442 0,0.181891 0.0366143,0.213781 0.0507876,0.370868 0.0118111,0.129922 0.00354332,0.296458 0.00236222,0.429923 -0.00472443,0.946067 0.216143,0.968508 0.216143,1.58387l-0.00118111 1.77993c-0.0165355,0.282285 -0.105119,0.506695 -0.109843,0.814964 -0.022441,1.7067 -0.0141733,1.81418 0.238584,3.39214 0.201969,1.26142 -0.297639,1.963 -0.289371,3.2882 0.00708665,1.1752 -0.23504,1.24016 -0.268111,1.58623 0.370868,0 0.407482,-0.0307088 0.715751,-0.0779531 0.246852,-0.0366143 0.523231,-0.0177166 0.779531,-0.0177166 1.44095,0 3.32718,-0.111024 4.67955,0.162993 1.51536,0.307088 2.16615,0.0897642 2.99765,0.232678 0.17008,0.0295277 0.369687,0.140552 0.608271,0.174804 0.765358,0.107481 2.21812,0.174804 2.86655,-0.147638 0.161812,-0.0803153 0.346065,-0.194883 0.524412,-0.250395 0.702759,-0.216143 2.17206,-0.184253 2.82993,0.0389766 0.624806,0.212599 2.32088,0.252757 3.00946,0.121654 0.600003,-0.114567 0.670869,-0.193702 1.44449,-0.188977 2.39883,0.01063 1.4693,0.218505 2.52639,0.657877 0.505514,0.210237 0.742917,0.154725 1.42678,0.15945 0.627168,0.00354332 0.896461,-0.1063 1.21418,-0.396852 0.335435,-0.305907 0.446459,-0.519687 0.813783,-0.709846 0.633074,-0.327167 1.8756,-0.223229 2.70119,0.11693 1.02756,0.422837 1.73859,0.0803153 2.85001,0.367325 0.0614176,0.0165355 0.206694,0.0531498 0.285828,0.0791342 0.812602,0.283466 1.67009,0.353151 2.53584,0.194883 1.29568,-0.236222 0.548034,-0.689767 2.47206,-0.707484l1.50827 -0.129922c0.539766,-0.0791342 0.439372,-0.162993 1.37245,-0.209056 1.66418,-0.0803153 1.79883,0.472443 2.31025,0.85276 0.540947,0.401577 2.05631,0.398033 2.63623,0.0413388 0.742917,-0.455908 0.41575,-0.894099 2.26536,-0.89528 1.3004,0 1.36064,0.803153 2.34804,0.819689 1.02284,0.0165355 2.50749,0.27756 2.73545,-0.374411 0.0803153,-0.233859 0.0425199,-1.09725 0.0425199,-1.45276 0,-1.68544 -0.488979,-1.06536 -0.481892,-2.49686 0.00472443,-1.213 -0.115749,-1.54961 -0.258663,-2.70001 -0.0566932,-0.45827 -0.01063,-0.914177 -0.0744098,-1.37481 -0.0354332,-0.249214 -0.054331,-0.344883 -0.172442,-0.565751 -0.0897642,-0.165355 -0.192521,-0.38386 -0.239765,-0.552758 -0.103937,-0.380317 -0.144095,-1.46339 0.103937,-1.96891 0.316537,-0.641342 1.22127,-0.692129 0.855122,-2.83348 -0.0637798,-0.37323 -0.316537,-0.648428 -0.44764,-1.03937 -0.190158,-0.572837 -0.201969,-1.33111 -0.00236222,-1.96182 0.0909453,-0.290553 0.101575,-0.287009 0.236222,-0.506695 0.3626,-0.590554 0.236222,-0.441734 0.353151,-1.17284 0.105119,-0.657877 -0.0366143,-1.33229 -0.27756,-1.87442 -0.270474,-0.608271 -0.23504,-1.33583 -0.23504,-1.99962 0,-0.546853 -0.0555121,-0.91654 -0.0531498,-1.43977 0.00118111,-0.501971 -0.101575,-0.894099 -0.022441,-1.36654 0.0803153,-0.471262 -0.0295277,-0.980319 0.0295277,-1.46221 0.0531498,-0.414569 0.0389766,-1.66064 -0.0696854,-2.01733 -0.179528,-0.584648 -0.53268,-0.701578 -0.525593,-1.73623 0.00236222,-0.491341 -0.0177166,-1.01811 0.160631,-1.3441 -0.139371,0.0307088 -0.0779531,-0.0165355 -0.211418,0.142914 -0.635436,0.74646 -0.340159,0.375592 -0.88465,0.934256 -0.132284,0.135827 -0.227954,0.274017 -0.347246,0.407482 -0.246852,0.278741 -0.499609,0.461813 -0.740555,0.728743 -0.472443,0.523231 -0.897642,1.08898 -1.4504,1.52835 -0.409844,0.324805 -0.951973,1.14922 -1.41379,1.56497 -0.146457,0.132284 -0.281104,0.191339 -0.418112,0.344883 -0.158268,0.177166 -0.23504,0.238584 -0.38386,0.374411 -0.690948,0.633074 -1.86379,1.4067 -2.80041,1.66064 -0.894099,0.243308 -1.43623,0.92717 -2.03387,1.01103 -1.16575,0.160631 -1.47638,-0.940162 -1.37245,-1.57442 0.0625987,-0.38386 0.409844,-0.798429 0.514963,-0.980319 0.24567,-0.419293 0.219686,-0.576381 0.56457,-0.885831l1.09725 -1.07835c0.336616,-0.261025 1.13741,-0.701578 1.32284,-0.973233 0.387403,-0.566932 0.869295,-1.08544 1.45867,-1.52127 0.316537,-0.23504 1.3878,-1.43741 1.48229,-1.50355 0.240946,-0.17008 0.587011,-0.679137 1.05709,-1.11378 0.172442,-0.160631 0.211418,-0.229135 0.360238,-0.395671 0.263387,-0.294096 0.879925,-0.68268 0.987406,-0.84213 0.0885831,-0.129922 0.0236222,-0.125197 0.145276,-0.252757 0.0933075,-0.0980319 0.28819,-0.198426 0.427561,-0.337797 0.119292,-0.119292 0.232678,-0.2563 0.346065,-0.3626l1.22599 -1.05709c0.240946,-0.212599 1.28505,-1.3382 1.37835,-1.58859l-0.0448821 -1.20001c0,-1.28977 -0.153544,-1.26497 0.359057,-2.27363 0.119292,-0.237403 0.230316,-0.754728 0.231497,-1.08898 0.00118111,-1.92993 -0.364962,-1.43623 -0.530317,-2.74608 -0.022441,-0.179528 -0.00944886,-0.47953 -0.00826775,-0.669688 0.00472443,-0.411026 0.162993,-0.716932 0.162993,-1.15158 -0.505514,0 -2.04686,0.213781 -2.73308,-0.0389766 -1.21182,-0.44764 -0.575199,-0.483073 -2.50159,-0.49016 -0.962603,-0.00354332 -1.20355,0.290553 -2.6693,0.289371 -0.533861,0 -0.933075,-0.0153544 -1.36772,-0.115749 -0.428742,-0.0992131 -0.620082,-0.310631 -1.14922,-0.359057 -0.317718,-0.0295277 -1.16339,-0.0271655 -1.48938,-0.00472443 -0.583467,0.0389766 -0.907091,0.471262 -1.3193,0.830319 -0.400396,0.347246 -1.31694,0.366143 -1.93702,0.321261 -0.634255,-0.0460632 -0.903547,-0.346065 -1.27442,-0.536223 -0.694491,-0.355513 -1.39253,-0.23504 -2.35985,-0.232678 -0.538585,0 -0.871658,0.146457 -1.38544,0.146457 -1.1752,0 -1.73269,0.0425199 -2.86891,-0.113386 -0.992131,-0.134646 -1.89922,0.128741 -2.76734,-0.248033 -0.38386,-0.167717 -0.556302,-0.338978 -1.09489,-0.361419 -1.53898,-0.0649609 -1.5378,-0.0779531 -2.563,0.385041 -0.15945,0.0720476 -0.335435,0.166536 -0.539766,0.186615 -0.706302,0.0720476 -1.77284,0.0460632 -2.17678,0.108662 -1.67481,0.262206 -5.61617,-0.131103 -6.54097,0.121654 -0.203151,0.054331 -0.337797,0.152363 -0.555121,0.220867 -0.076772,0.0248033 -0.220867,0.0673231 -0.279923,0.0850398 -0.359057,0.105119 -0.571656,0.00944886 -1.03937,0.0732287l-6.60121 0.166536c-0.34134,0 -0.421655,-0.0555121 -0.69331,-0.0980319 -1.08898,-0.173623 -0.957878,-0.898823 -1.80709,-1.06418 -0.545672,-0.1063 -0.95906,-0.0425199 -1.34174,-0.0401577 -0.969689,0.00826775 -1.4126,0.0177166 -1.15394,1.56497 0.0531498,0.32008 -0.0200788,1.37481 0.198426,1.83898 0.205513,0.438191 0.32008,0.418112 0.370868,1.01103 0.258663,2.99411 -1.12678,1.20709 -1.12678,3.70514 0,0.453545 0.0177166,0.866933 0.183072,1.22835 0.375592,0.819689 0.350789,1.41969 0.29882,2.42363 -0.022441,0.435829 -0.465356,1.17048 -0.282285,2.41537 0.0885831,0.608271 -0.0271655,0.628349 0.325986,1.05119 1.14922,1.37481 0.276379,2.64804 0.276379,4.60514 0,1.01221 -0.107481,1.62875 -0.107481,2.59489 0,1.72206 -0.227954,1.21182 -0.732287,2.07993 -0.327167,0.566932 -0.121654,3.19135 -0.121654,3.92836l-0.00118111 0z"/>
   <path id="_217670656" class="fil2" d="M14.8512 34.1789c0.364962,2.85119 3.20789,5.25002 6.80909,4.87561 3.15356,-0.327167 5.76026,-2.84411 5.39884,-6.11932 -0.308269,-2.80631 -3.21379,-5.20987 -6.77011,-4.86262 -3.15238,0.308269 -5.85239,2.86891 -5.43782,6.10633l0 0z"/>
   <path id="_217670776" class="fil2" d="M39.4443 14.5749c0.291734,2.85946 3.06025,5.2642 6.62247,5.01498 3.23624,-0.227954 5.89137,-2.77797 5.61735,-5.97522 -0.24567,-2.86891 -3.07088,-5.30908 -6.66381,-5.03624 -3.18072,0.238584 -5.89963,2.79214 -5.57601,5.99648z"/>
   <path id="_217670584" class="fil3" d="M59.3211 12.7489c-0.0944886,0.250395 -1.13859,1.37599 -1.37835,1.58741l-1.22717 1.05827c-0.112205,0.1063 -0.226773,0.243308 -0.344883,0.3626 -0.139371,0.13819 -0.335435,0.239765 -0.428742,0.337797 -0.120473,0.126379 -0.0566932,0.121654 -0.144095,0.252757 -0.108662,0.15945 -0.7252,0.548034 -0.987406,0.84213 -0.150001,0.165355 -0.187796,0.23504 -0.360238,0.39449 -0.471262,0.435829 -0.816145,0.943705 -1.05827,1.11497 -0.0933075,0.066142 -1.16457,1.26851 -1.48229,1.50355 -0.589373,0.435829 -1.07126,0.954335 -1.45867,1.52009 -0.185434,0.272836 -0.987406,0.713389 -1.32166,0.974414l-1.09843 1.07835c-0.344883,0.30945 -0.318899,0.466538 -0.56457,0.885831 -0.105119,0.181891 -0.451183,0.596459 -0.513782,0.979138 -0.105119,0.635436 0.205513,1.73623 1.37127,1.57442 0.598822,-0.0814964 1.13977,-0.766539 2.03505,-1.00985 0.935437,-0.255119 2.10828,-1.02756 2.80041,-1.66064 0.147638,-0.134646 0.22441,-0.197245 0.382679,-0.374411 0.13819,-0.153544 0.272836,-0.212599 0.419293,-0.346065 0.460632,-0.414569 1.00276,-1.23898 1.41379,-1.56497 0.551577,-0.438191 0.977957,-1.00512 1.4504,-1.52835 0.240946,-0.265749 0.492522,-0.448821 0.740555,-0.727562 0.118111,-0.134646 0.213781,-0.270474 0.347246,-0.407482 0.54331,-0.559845 0.249214,-0.187796 0.883469,-0.934256 0.134646,-0.15945 0.0732287,-0.112205 0.212599,-0.144095 0.0448821,-0.177166 0.651971,-0.902366 0.85276,-1.10788l0.0507876 -0.0507876c0.47953,-0.461813 0.24567,-0.302364 0.65079,-0.759452 0.233859,-0.263387 0.172442,-0.111024 0.343702,-0.3626 0.11693,-0.17008 0.198426,-0.23504 0.322442,-0.38386l0.6189 -0.740555c0.207875,-0.248033 0.465356,-1.01103 0.738192,-1.35473 0.537404,-0.679137 0.201969,-0.315356 0.559845,-0.840949 0.232678,-0.34134 0.375592,-0.646066 -0.0259844,-0.887012 0.193702,-0.261025 0.211418,-0.285828 0.349608,-0.648428 0.196064,-0.513782 0.152363,-0.395671 -0.295277,-0.361419 -0.0141733,-0.150001 0,-0.0909453 -0.054331,-0.192521 0.134646,-0.165355 0.131103,-0.0413388 0.310631,-0.344883 0.209056,-0.35197 0.55394,-0.438191 0.594097,-0.715751 0.108662,-0.741736 -0.15945,0.022441 0.300001,-1.02638 0.165355,-0.374411 0.56457,-1.01575 -0.0295277,-1.37245 -0.126379,0.0838587 -0.179528,0.194883 -0.287009,0.317718 -0.139371,0.15945 -0.186615,0.122835 -0.269293,0.190158 -0.146457,0.119292 -0.00236222,0.0944886 -0.220867,0.283466 -0.125197,0.1063 -0.718114,0.773626 -1.13268,1.14213 -0.344883,0.305907 -0.843311,0.956697 -1.25552,1.32166l-0.924807 1.04174c-0.338978,0.445278 0.0318899,0.210237 -0.701578,0.904729l-0.158268 0.153544c-0.00472443,0.00708665 -0.0165355,0.0177166 -0.0259844,0.0259844l0.00118111 0z"/>
   <path id="_217671040" class="fil4" d="M38.6789 31.0501c-0.0496065,-0.366143 0.0248033,-0.192521 0.207875,-0.462994 0.183072,-0.272836 0.105119,-0.153544 0.307088,-0.349608 0.68268,-0.664964 0.161812,-0.307088 0.354332,-0.87402 0.0507876,-0.144095 0.311812,-0.559845 0.433467,-0.921264 0.126379,-0.377954 0.145276,-0.670869 -0.133465,-0.934256 -0.239765,0.0897642 -0.949611,0.871658 -1.11733,1.06418 -0.745279,0.848035 -1.45512,1.50591 -2.11891,2.22639 -0.623625,0.675594 -1.27442,1.54961 -1.95001,2.33033l-1.02284 1.14567c-0.56457,0.504333 -0.361419,0.207875 -1.17638,1.00867l-1.65473 1.58505c-0.633074,0.494884 -2.45907,2.54529 -3.22915,3.2445l-1.61576 1.62284 -0.925988 0.705121c-0.132284,0.122835 -0.145276,0.145276 -0.265749,0.240946 -0.734649,0.577562 -1.34528,1.42323 -1.85434,2.41655 -0.287009,0.561026 -0.0673231,1.22481 0.305907,1.57914 0.809059,0.76772 1.98544,-0.386222 2.34804,-0.535042l1.1693 -0.486616c0.147638,-0.0685043 0.197245,-0.128741 0.322442,-0.192521 0.393309,-0.197245 0.0555121,0.145276 0.754728,-0.329529 0.251576,-0.17008 0.472443,-0.250395 0.71457,-0.413388 0.385041,-0.258663 3.25513,-3.41458 3.67443,-3.85514 0.348427,-0.367325 0.699216,-0.804334 1.03819,-1.1315l1.05237 -1.11851c0.173623,-0.206694 0.355513,-0.368506 0.539766,-0.571656 0.171261,-0.191339 0.327167,-0.375592 0.497246,-0.563388 1.1256,-1.25197 1.91339,-2.1756 2.74726,-3.63073 0.134646,-0.233859 0.263387,-0.434648 0.412207,-0.686224 0.0921264,-0.155906 0.343702,-0.531498 0.39449,-0.656696 0.142914,-0.35197 -0.248033,-0.27756 -0.121654,-0.727562 0.0614176,-0.220867 0.230316,-0.45827 0.307088,-0.727562l-0.393309 0 -0.00118111 -0.00118111z"/>
   <path id="_217671256" class="fil5" d="M7.79177 37.2226c0.162993,0.0968508 1.25434,1.30158 1.54371,1.57442 0.155906,0.14882 0.282285,0.238584 0.434648,0.377954l1.14331 1.17993c0.145276,0.141733 0.279923,0.232678 0.433467,0.380317l1.07126 1.24843c0.239765,0.271655 0.562207,0.475986 0.74646,0.816145 0.364962,0.669688 0.295277,0.797248 0.484254,1.05355 0.637798,0.855122 1.83072,1.35591 2.77442,1.97245 0.252757,0.166536 0.737011,0.403939 1.07599,0.524412 0.400396,0.142914 0.825594,0.308269 1.30985,0.146457 0.485435,-0.162993 0.719295,-0.270474 0.938981,-0.648428 0.196064,-0.338978 0.283466,-0.784256 0.109843,-1.18938 -0.137009,-0.32008 -1.19174,-1.18819 -1.54961,-1.58505 -0.503152,-0.558664 -1.03583,-0.876382 -1.52245,-1.61103 -0.164174,-0.248033 -1.48583,-1.29922 -1.62875,-1.51064 -0.162993,-0.236222 -0.175985,-0.265749 -0.353151,-0.452364 -0.165355,-0.173623 -0.233859,-0.178347 -0.427561,-0.335435l-0.775988 -0.790161c-0.361419,-0.441734 -1.01221,-1.06063 -1.50946,-1.62284l-1.54489 -1.58859c-0.301182,-0.265749 -0.627168,-0.460632 -0.830319,-0.744098 -0.328348,-0.45827 -0.727562,-0.868114 -1.14922,-1.22363 -0.178347,-0.150001 -0.201969,-0.240946 -0.374411,-0.38386 -0.187796,-0.154725 -0.263387,-0.179528 -0.450002,-0.363781 -0.151182,-0.150001 -0.243308,-0.264568 -0.353151,-0.402758 -0.348427,-0.438191 -0.644885,-0.507876 -0.825594,-0.747641l-0.35197 -0.259844c-0.00708665,-0.00826775 -0.0188977,-0.0177166 -0.0271655,-0.0248033 -0.590554,-0.47953 -0.425199,0.0153544 -1.45749,-1.23426 -0.248033,-0.300001 -0.518506,-0.398033 -0.648428,-0.52205 -0.40512,-0.380317 -0.712208,-0.803153 -1.06063,-1.20827 -0.0944886,-0.1063 -1.03111,-0.972052 -1.26024,-1.02874 -0.12756,0.076772 -0.0555121,0.0590554 -0.213781,0.0968508 0.0177166,0.751185 0.333072,0.683861 0.438191,0.902366 0.287009,0.592916 -0.174804,0.837405 -0.171261,1.0193 0.0673231,0.227954 -0.0295277,-0.0566932 0.0791342,0.122835l0.0496065 0.108662c0.122835,0.440553 -0.066142,0.654334 0.29882,0.87402 -0.0590554,0.0980319 -0.0744098,0.113386 -0.1063,0.239765 0.56457,0.340159 0.0519687,0.455908 0.465356,0.974414 0.175985,0.219686 0.0673231,0.264568 0.268111,0.47953 0.249214,0.26693 0.132284,0.262206 0.323624,0.477168 0.12756,0.141733 0.23504,0.22441 0.376773,0.382679 0.0755909,0.0850398 0.125197,0.11693 0.207875,0.197245 0.207875,0.199607 0.251576,0.35197 0.633074,0.583467 0.233859,0.142914 1.04764,0.949611 1.23426,1.14922 0.219686,0.23504 0.877563,1.01103 1.02048,1.29213 0.205513,0.407482 0.124016,0.179528 0.354332,0.450002 0.265749,0.310631 0.452364,0.596459 0.777169,0.853941l-0.00118111 0z"/>
   <path id="_217671472" class="fil6" d="M27.4442 8.66579c-0.227954,-0.222048 -0.382679,-0.448821 -0.576381,-0.633074 -0.38386,-0.366143 -0.470081,-0.419293 -0.739373,-0.30945 -0.0401577,0.134646 0.0366143,0.347246 0.0755909,0.473624 0.0956697,0.305907 0.118111,0.151182 0.272836,0.328348 0.210237,0.239765 0.196064,0.609452 0.0165355,0.869295 -0.323624,0.466538 -0.158268,0.431104 0.00118111,0.846854 0.0696854,0.179528 0.0519687,0.2563 0.141733,0.44764 0.311812,0.660239 0.343702,1.16575 0.401577,1.32048l1.97245 2.16851c0.140552,0.108662 0.222048,0.162993 0.33071,0.27756 0.206694,0.218505 0.425199,0.381498 0.64016,0.577562l0.846854 0.966146c0.0685043,0.0944886 0.128741,0.231497 0.206694,0.343702 0.275198,0.395671 0.76772,0.933075 1.13859,1.23426 0.216143,0.175985 0.388584,0.421655 0.578743,0.633074 0.193702,0.212599 0.402758,0.359057 0.611814,0.552758l1.16575 1.25906c0.12756,0.133465 0.194883,0.135827 0.337797,0.272836 0.0850398,0.0826775 0.0602365,0.0732287 0.153544,0.150001 0.550396,0.460632 0.770082,0.949611 1.32048,1.35827 1.49646,1.1067 1.67835,2.7697 2.55474,3.32364l1.51418 0.896461c0.889374,0.53268 2.50041,1.69725 3.48072,0.801972 1.37245,-1.25316 0.0496065,-2.16025 -0.716932,-2.8571 -0.753547,-0.686224 -0.504333,-0.375592 -1.21772,-1.16103 -0.448821,-0.493703 -0.683861,-0.62953 -1.18938,-1.18938 -0.236222,-0.259844 -0.453545,-0.387403 -0.620082,-0.594097 -0.237403,-0.292915 -0.356695,-0.395671 -0.577562,-0.634255 -0.603546,-0.648428 -0.942524,-0.922445 -1.50237,-1.48347l-1.43741 -1.54253c-0.132284,-0.108662 -0.220867,-0.129922 -0.360238,-0.252757 -0.467719,-0.407482 -1.05,-1.26615 -1.44922,-1.53072 -0.512601,-0.340159 -0.701578,-0.896461 -1.12678,-1.24371 -0.172442,-0.142914 -0.147638,-0.120473 -0.303545,-0.305907l-1.54253 -1.44568c-0.251576,-0.239765 -0.431104,-0.262206 -0.654334,-0.517325 -0.520869,-0.592916 -0.833862,-0.634255 -1.35946,-1.03347l-2.38938 -2.36812 0 0z"/>
   <path id="_217671688" class="fil2" d="M44.0553 56.0908l0.64016 0 0 -2.8819 1.91221 2.60316c0.287009,0.390947 0.113386,0.327167 0.918902,0.327167l0 -3.79608 -0.64016 0 0 2.88308 -0.512601 -0.692129c-0.165355,-0.222048 -1.52127,-2.02324 -1.57087,-2.19095l-0.747641 0 0 3.74765z"/>
   <path id="_217671904" class="fil2" d="M50.0908 56.0908l0.64016 0 0 -2.8819 1.09016 1.4693c0.105119,0.142914 0.966146,1.46103 1.15276,1.46103l0.588192 0 0 -3.79608 -0.641342 0 0 2.88308 -0.512601 -0.692129c-0.165355,-0.222048 -1.52127,-2.02324 -1.56969,-2.19095l-0.747641 0 0 3.74765 0 0z"/>
   <path id="_217672096" class="fil2" d="M12.0107 54.2176c0,-0.805515 0.520869,-1.44213 1.2815,-1.44213 0.533861,0 0.823232,-0.0212599 1.24489,0.369687 0.755909,0.702759 0.561026,2.51458 -1.08426,2.51458 -0.897642,0 -1.44213,-0.611814 -1.44213,-1.44213l0 0zm-0.64016 -0.144095c0,0.840949 0.279923,1.60631 1.20355,1.94292 0.537404,0.197245 0.835043,0.194883 1.35946,0.122835 1.73741,-0.239765 2.40474,-2.76497 0.587011,-3.69923 -0.367325,-0.188977 -0.793704,-0.193702 -1.22717,-0.193702 -1.063,0 -1.92284,0.9378 -1.92284,1.82717l0 0z"/>
   <path id="_217672288" class="fil2" d="M21.3036 54.2648c0,-0.583467 0.191339,-1.12087 0.731106,-1.36064 0.894099,-0.398033 2.20631,0.0496065 2.20631,1.1693 0,0.457089 -0.0448821,0.875201 -0.413388,1.21418 -0.728743,0.669688 -2.52403,0.483073 -2.52403,-1.02284l0 0zm-0.64016 -0.191339c0,0.897642 0.301182,1.61457 1.20355,1.94292 2.38938,0.870476 3.87876,-1.70788 2.50631,-3.16655 -0.504333,-0.533861 -1.04882,-0.603546 -1.78702,-0.603546 -1.04174,0 -1.92284,0.903547 -1.92284,1.82717l0 0z"/>
   <path id="_217672480" class="fil2" d="M54.3097 54.0735c0,0.617719 0.0850398,1.1563 0.574018,1.59686 0.663783,0.600003 1.80355,0.6189 2.66104,0.304726 0.15945,-0.0590554 0.174804,-0.0885831 0.342521,-0.124016l0 -1.6819 -1.76221 0c0,0.664964 -0.193702,0.527955 1.1752,0.527955 0,0.666145 0.173623,0.962603 -0.855122,0.962603 -0.875201,0 -1.49528,-0.574018 -1.49528,-1.20237 0,-0.47953 -0.0259844,-0.933075 0.359057,-1.31103 0.801972,-0.78898 2.08702,-0.129922 2.31143,-0.0826775 0.0696854,-0.129922 0.155906,-0.340159 0.160631,-0.527955 -0.225592,-0.0472443 -0.302364,-0.135827 -0.53268,-0.193702 -1.4752,-0.37323 -2.9386,0.292915 -2.9386,1.7315l0 0z"/>
   <path id="_217672672" class="fil2" d="M41.3848 54.1691l-0.321261 0 0 -1.34528c0.897642,0 1.54961,-0.054331 1.54961,0.720476 0,0.542128 -0.747641,0.624806 -1.22835,0.624806zm-0.961422 1.92166l0.64016 0 0 -1.44095 0.694491 0c0.0484254,0.162993 0.355513,0.571656 0.471262,0.729925 0.173623,0.243308 0.318899,0.480711 0.491341,0.712208l0.69331 0c-0.0944886,-0.366143 -0.982682,-1.2378 -1.01457,-1.58623 0.76772,-0.160631 1.1067,-1.06182 0.657877,-1.69725 -0.0531498,-0.0732287 -0.0283466,-0.0401577 -0.0673231,-0.0826775 -0.492522,-0.546853 -1.52953,-0.381498 -2.56655,-0.381498l0 3.74765 0 -0.00118111z"/>
   <path id="_217672864" class="fil2" d="M38.1273 53.0164c0.126379,0.49016 0.561026,1.34883 0.587011,1.63347l-1.2815 0c0.0248033,-0.271655 0.361419,-0.941343 0.473624,-1.25552 0.0685043,-0.191339 0.0625987,-0.272836 0.220867,-0.377954zm-1.92284 3.07442l0.641342 0c0.00472443,-0.0519687 0.250395,-0.960241 0.480711,-0.960241 2.33033,0 1.37127,-0.157087 2.02914,0.960241l0.587011 0c-0.0248033,-0.263387 -0.585829,-1.52481 -0.726381,-1.89213 -0.0803153,-0.207875 -0.122835,-0.233859 -0.192521,-0.451183l-0.576381 -1.40316 -0.747641 0 -1.13741 2.77206c-0.100394,0.231497 -0.336616,0.739373 -0.357876,0.974414l0 0z"/>
   <path id="_217673056" class="fil2" d="M33.2139 56.0908l2.67048 0 0 -0.47953 -2.02914 0 0 -1.15394 1.54725 0c0.24567,0 0.24567,-0.529136 0,-0.529136l-1.54725 0 0 -1.10434 2.02914 0 0 -0.480711 -2.67048 0 0 3.74765z"/>
   <path id="_217673248" class="fil2" d="M26.197 56.0908l-0.0177166 -1.20237c0,-0.0496065 -0.00590554,-0.151182 -0.00236222,-0.192521 0.00708665,-0.0720476 -0.00236222,-0.022441 0.0129922,-0.0838587 0.066142,-0.282285 1.15276,-0.144095 1.68308,-0.132284l0 -0.455908 -1.60158 0 0 -1.20119 1.97481 0 0 -0.480711 -2.61615 0 0 3.74884 0.566932 0 0 0z"/>
   <path id="_217673440" class="fil2" d="M17.2454 54.6499l0 1.44095 0.641342 0 0 -1.44095c0,-0.188977 0.223229,-0.414569 0.32008,-0.576381l1.06772 -1.7315 -0.69331 0c-0.0732287,0.27756 -0.889374,1.35355 -0.962603,1.63465l-0.1063 0c-0.0425199,-0.160631 -0.375592,-0.644885 -0.483073,-0.814964 -0.165355,-0.257481 -0.349608,-0.574018 -0.531498,-0.819689l-0.694491 0c0.230316,0.392128 0.470081,0.738192 0.712208,1.13741 0.0992131,0.164174 0.729925,1.08898 0.729925,1.1693l0 0.00118111z"/>
   <polygon id="_217673872" class="fil2" points="29.9021,56.0908 32.5194,56.0908 32.5194,55.6113 30.5434,55.6113 30.5434,52.3432 29.9021,52.3432 "/>
   <path id="_217673800" class="fil2" d="M9.98154 54.9865c0,0.596459 -0.526774,0.790161 -1.09961,0.603546 -0.196064,-0.0637798 -0.222048,-0.129922 -0.395671,-0.172442 -0.0578743,0.108662 -0.1063,0.361419 -0.1063,0.529136 1.27323,0.605908 2.18977,-0.0862209 2.18977,-0.67205l0 -2.93033 -0.588192 0 0 2.64214z"/>
   <polygon id="_217674232" class="fil2" points="48.488,56.0908 49.1294,56.0908 49.1294,52.3443 48.488,52.3443 "/>
   <path id="_217674280" class="fil2" d="M26.197 56.0908c0.162993,-0.0897642 0.0744098,-0.568113 0.0744098,-0.720476l0 -0.817327 1.60158 -0.0732287c-0.530317,-0.0118111 -1.61694,-0.150001 -1.68426,0.132284 -0.0141733,0.0614176 -0.00590554,0.0118111 -0.0118111,0.0838587 -0.00354332,0.0425199 0.00118111,0.144095 0.00118111,0.192521l0.0188977 1.20355 0 -0.00118111z"/>
   <path id="_217674496" class="fil2" d="M153.712 23.4757c-0.344883,-0.0248033 0.0496065,-0.0814964 -0.625987,0.00708665 0.331891,-0.596459 1.8945,-4.06065 2.02324,-4.56026l0.578743 0c0.0188977,0.199607 0.354332,0.907091 0.452364,1.15394 0.3626,0.915359 0.864571,1.90985 1.26142,2.81104 0.0885831,0.199607 0.212599,0.39449 0.263387,0.588192l-0.772444 -0.043701c-0.242127,0 -0.214962,0.0389766 -0.433467,0.043701 -0.076772,-0.146457 -0.466538,-1.18465 -0.481892,-1.34528l-1.73505 0 -0.530317 1.34528 0 0zm-35.2372 0c-0.343702,-0.0248033 0.0496065,-0.0814964 -0.625987,0.00708665l1.7693 -3.96616c0.0909453,-0.207875 0.150001,-0.418112 0.253938,-0.594097l0.531498 0c0.0755909,0.295277 1.31694,3.05434 1.48701,3.4323l0.537404 1.12087 -0.722838 -0.043701c-0.268111,0 -0.285828,0.043701 -0.531498,0.043701 -0.0165355,-0.186615 -0.171261,-0.530317 -0.233859,-0.699216 -0.30945,-0.836224 0.0850398,-0.646066 -1.83898,-0.646066 -0.192521,0 -0.292915,0.467719 -0.354332,0.634255 -0.0956697,0.258663 -0.205513,0.45827 -0.271655,0.711027l0 0zm21.0166 0.087402c-1.79646,0 -2.74726,-0.786618 -2.74726,-2.34214 0,-1.52481 1.18583,-2.29844 2.89253,-2.29844 1.65001,0 2.60316,0.85276 2.60316,2.34214 0,1.42678 -1.15749,2.29844 -2.74844,2.29844zm-6.26578 -3.72994l0 2.90553c0,0.314175 0.0472443,0.434648 0.0472443,0.737011l-0.770082 -0.0425199c-0.243308,0 -0.216143,0.0377954 -0.434648,0.0425199 0,-0.527955 0.0484254,-0.897642 0.0484254,-1.43032l0 -1.69135c0,-0.505514 -0.0484254,-0.844492 -0.0484254,-1.34528l0.675594 0.043701c0.26693,0 0.284647,-0.043701 0.529136,-0.043701 0,0.33071 -0.0472443,0.483073 -0.0472443,0.824413l0 0zm-54.8069 0l0 2.7319c0,0.367325 0.0472443,0.552758 0.0472443,0.910634l-0.771263 -0.0425199c-0.242127,0 -0.216143,0.0377954 -0.434648,0.0425199 0,-0.50079 0.0484254,-0.837405 0.0484254,-1.3441l0 -1.77757c0,-0.505514 -0.0484254,-0.844492 -0.0484254,-1.34528l0.675594 0.043701c0.268111,0 0.285828,-0.043701 0.530317,-0.043701 0,0.33071 -0.0472443,0.483073 -0.0472443,0.824413l0 0zm24.9686 -0.824413l1.88032 0c1.89568,0 1.71851,1.4693 1.19174,1.89686 -0.258663,0.211418 -0.506695,0.229135 -0.806697,0.359057 0.0448821,0.14882 0.287009,0.429923 0.385041,0.563388 0.13819,0.184253 0.258663,0.349608 0.406301,0.545672l0.79961 1.10197 -0.724019 -0.0425199c-0.26693,0 -0.284647,0.0425199 -0.529136,0.0425199 -0.413388,-0.701578 -0.722838,-1.05237 -1.09371,-1.61812 -0.0909453,-0.13819 -0.284647,-0.429923 -0.400396,-0.506695 0,0.361419 0,0.722838 0,1.08426 -0.00236222,0.395671 0.0472443,0.630712 0.0472443,1.04056l-0.722838 -0.0425199c-0.240946,0 -0.214962,0.0377954 -0.433467,0.0425199 0,-0.252757 0.0366143,-0.317718 0.0472443,-0.519687 0.0118111,-0.183072 -0.01063,-0.382679 0,-0.56457 0.0519687,-0.868114 0.0885831,-1.27678 0.00354332,-2.2134 -0.0177166,-0.191339 0.00590554,-0.412207 -0.00118111,-0.605908 -0.00708665,-0.225592 -0.0496065,-0.295277 -0.0496065,-0.563388l0 0zm11.3268 0.563388l0 3.5138c0,0.218505 0.043701,0.194883 0.0496065,0.389766 -0.302364,-0.0625987 -0.324805,-0.0625987 -0.627168,0 -0.161812,-0.217324 -1.35119,-1.3382 -1.56261,-1.58623 -0.132284,-0.153544 -0.2563,-0.242127 -0.402758,-0.374411l-0.775988 -0.777169c-0.120473,-0.13819 -0.283466,-0.290553 -0.440553,-0.38386l0 3.12167c-0.29882,-0.0625987 -0.278741,-0.0625987 -0.578743,0 0,-0.471262 0.0496065,-0.779531 0.0496065,-1.2567l0 -1.77875c0,-0.533861 -0.0496065,-0.902366 -0.0496065,-1.4315 0.759452,0 0.722838,-0.0838587 1.09489,0.316537l1.52363 1.53544c0.129922,0.142914 0.272836,0.231497 0.403939,0.37323l0.786618 0.76772 0 -2.99293 0.578743 0c0,0.248033 -0.0496065,0.301182 -0.0496065,0.56457l0 -0.00118111zm30.899 -0.563388c1.15867,0 0.571656,-0.126379 1.67599,0.877563l1.2756 1.2815c0.282285,0.2563 0.679137,0.698035 0.904729,0.833862l0 -1.51772c0,-0.551577 -0.0472443,-0.949611 -0.0472443,-1.4752l0.578743 0 -0.0484254 3.34017c-0.00118111,0.432285 0.0484254,0.694491 0.0484254,1.12678 -0.240946,-0.102756 -0.399214,-0.0165355 -0.627168,0 -0.135827,-0.229135 -0.200788,-0.219686 -0.372049,-0.402758 -0.0803153,-0.087402 -0.0791342,-0.105119 -0.17008,-0.193702l-2.39765 -2.35395c-0.0909453,-0.111024 -0.076772,-0.132284 -0.242127,-0.172442l0 2.34214c-0.00118111,0.329529 0.0484254,0.470081 0.0484254,0.780712 -0.292915,-0.0614176 -0.334253,-0.0614176 -0.627168,0l0 -4.46695zm-16.9194 0.563388c-0.213781,-0.0921264 -1.06772,-0.0862209 -1.39725,-0.0862209l0 2.90553c0,0.421655 0.0484254,0.669688 0.0484254,1.08426l-0.772444 -0.0425199c-0.242127,0 -0.214962,0.0377954 -0.433467,0.0425199 0.134646,-0.252757 0.0968508,-3.53742 0.0968508,-3.98978 -0.329529,0 -1.18347,-0.00590554 -1.39843,0.0862209l0 -0.563388 2.26536 0.043701c0.592916,0 1.00276,-0.043701 1.59095,-0.043701 -0.00354332,0.152363 -0.0177166,0.141733 -0.0141733,0.242127 0.00590554,0.1063 0.0141733,0.206694 0.0141733,0.321261l0 0zm33.2128 1.08426l0 1.4752c0,0.367325 0.0484254,0.551577 0.0484254,0.910634l0.819689 -0.0413388c0.312994,0 0.467719,-0.0448821 0.818508,-0.0448821 0,0.175985 -0.022441,0.355513 0.0472443,0.519687 -0.335435,0 -0.4689,-0.043701 -0.818508,-0.043701l-1.30158 0c-0.321261,0 -0.416931,0.043701 -0.722838,0.043701l0.0980319 -2.73308c-0.00118111,-0.261025 -0.0484254,-0.315356 -0.0519687,-0.561026 -0.00236222,-0.200788 0.01063,-0.411026 0.00354332,-0.611814 -0.00708665,-0.216143 -0.0496065,-0.300001 -0.0496065,-0.561026 0.243308,0 0.253938,0.0425199 0.577562,0.0425199 0.294096,0 0.35197,-0.0425199 0.627168,-0.0425199 -0.0496065,0.537404 -0.0956697,1.04882 -0.0956697,1.64765l0 0zm-64.8334 -1.64765l2.79568 0c-0.0460632,0.178347 -0.0968508,0.338978 0,0.520869l-1.63938 -0.043701 0 1.4315c0.305907,0 0.402758,-0.043701 0.722838,-0.043701l0.868114 0 0 0.520869 -1.59095 -0.087402 0 1.69135c0.728743,0 0.985044,-0.0377954 1.63938,-0.0862209 -0.0980319,0.375592 -0.0307088,0.227954 0,0.563388l-2.07284 -0.0425199c-0.321261,0 -0.418112,0.0425199 -0.722838,0.0425199 0.122835,-1.33229 0.0956697,-1.8567 0.0956697,-3.20907 0,-0.24567 -0.033071,-1.13032 -0.0956697,-1.25788l0 0zm-6.76893 0.520869c-0.151182,0.0779531 -0.282285,0.0377954 -0.474805,0.054331l0.01063 -0.621263 0.70394 0.0460632c0.879925,0.153544 2.26655,0 3.20316,0 -0.087402,0.336616 -0.00826775,0.269293 0,0.563388 -0.211418,-0.0897642 -1.04056,-0.0862209 -1.39843,-0.0862209l0 2.99175c-0.00118111,0.398033 0.0472443,0.622444 0.0472443,0.998036 -0.207875,-0.00354332 -0.303545,-0.043701 -0.577562,-0.0448821 -0.284647,0 -0.414569,0.0413388 -0.627168,0.0448821 0.142914,-1.53898 0.0696854,-2.15434 0.0992131,-3.6449 0.00590554,-0.30945 0.0578743,-0.347246 -0.285828,-0.349608 -0.244489,-0.00236222 -0.531498,-0.01063 -0.701578,0.0484254l0.00118111 0zm-8.17563 -0.520869c1.26024,0 0.669688,-0.00826775 1.67599,0.877563l2.18151 2.11536 0 -2.99293 0.578743 0c-0.101575,0.389766 -0.120473,4.24254 0,4.46695 -0.302364,-0.0625987 -0.324805,-0.0625987 -0.627168,0 -0.112205,-0.150001 -0.263387,-0.238584 -0.392128,-0.38386 -0.141733,-0.158268 -0.257481,-0.24567 -0.386222,-0.389766 -0.485435,-0.546853 -1.46221,-1.43977 -2.0067,-1.96773 -0.146457,-0.144095 -0.214962,-0.325986 -0.444097,-0.380317l0 1.56024c0,0.578743 0.0484254,0.999217 0.0484254,1.56142 -0.198426,-0.0413388 -0.376773,-0.087402 -0.578743,0 0,-0.588192 0.137009,-4.0949 -0.0484254,-4.46695l-0.00118111 0zm-7.14925 -1.08308l0 6.80791 90.637 0 0.00118111 -6.80791 -90.637 0 -0.00118111 0z"/>
   <path id="_217674688" class="fil2" d="M105.651 32.6281c0,0.977957 -0.0472443,1.82363 -0.0472443,2.77442 0,0.507876 -0.0496065,0.881106 -0.0472443,1.39016l-0.0980319 1.34292c0.649609,0 0.775988,-0.153544 1.84017,-0.0507876 0.207875,0.0200788 0.44764,0.0507876 0.6189,0.0507876 0,-0.214962 -0.0318899,-0.22441 -0.0460632,-0.393309l-0.0507876 -4.98546c0.524412,0 0.866933,-0.0425199 1.39843,-0.0425199l1.4941 0c0.530317,0 0.872839,0.0425199 1.39725,0.0425199l0 2.99411c0,0.849216 -0.0956697,1.56733 -0.0956697,2.38584 0.162993,-0.00354332 0.357876,-0.0318899 0.574018,-0.0472443 1.28623,-0.0909453 0.935437,0.0283466 1.83544,0.0472443 0,-0.727562 -0.0980319,-1.37835 -0.0956697,-2.08347 0.00118111,-0.724019 -0.0496065,-1.36418 -0.0496065,-2.12481l0 -2.55828c0,-0.774807 0.0507876,-1.4315 0.0496065,-2.16851 -0.00236222,-0.737011 0.0956697,-1.41733 0.0956697,-2.16851 -0.643704,0 -0.752366,0.150001 -1.79174,0.0507876 -0.207875,-0.0200788 -0.446459,-0.0507876 -0.617719,-0.0507876 0,0.866933 0.0956697,1.65355 0.0956697,2.55828l0 1.95237 -2.69883 0.0425199c-0.592916,0 -1.00276,-0.0425199 -1.59095,-0.0425199 0,-0.994493 -0.0413388,-2.57127 0.0460632,-3.51498 0.0141733,-0.166536 -0.01063,-0.350789 0.00472443,-0.516144 0.0165355,-0.179528 0.0460632,-0.243308 0.0460632,-0.480711 -0.420474,0 -0.780712,0.087402 -1.25434,0.087402 -0.4689,0 -0.792523,-0.087402 -1.20473,-0.087402l0.0980319 1.3441c-0.00236222,0.524412 0.0472443,0.883469 0.0460632,1.38898 0,0.983863 0.0484254,1.85434 0.0484254,2.86301l0 0z"/>
   <path id="_217674880" class="fil2" d="M92.4937 10.1174c0,-1.19528 0.213781,-2.33741 0.625987,-3.16419 0.368506,-0.739373 1.13859,-1.64883 2.31379,-1.64883 0.719295,0 1.20827,0.0413388 1.79528,0.510239 0.3626,0.289371 0.584648,0.605908 0.806697,1.00748 1.12441,2.01379 1.2626,8.11067 -2.45789,8.11067 -2.52639,0 -3.08387,-2.97285 -3.08387,-4.81538l0 0zm2.98702 5.76971c1.82481,0 3.25277,-0.575199 4.12561,-1.57914 1.2815,-1.47757 1.46575,-2.61261 1.46575,-4.53663 0,-2.10473 -0.9378,-4.17522 -2.85946,-4.97364 -1.44568,-0.602365 -3.46891,-0.591735 -4.90042,-0.0141733 -2.02206,0.816145 -2.90316,2.6882 -3.12639,4.56026 -0.0271655,0.219686 0.0141733,0.462994 -0.0141733,0.681499 -0.0897642,0.698035 0.0803153,1.74332 0.248033,2.34804 0.582286,2.10119 2.31261,3.5138 5.06105,3.5138z"/>
   <path id="_217675072" class="fil2" d="M143.299 32.6281c0,-1.50827 0.361419,-4.03703 2.1071,-4.69845 1.40552,-0.533861 2.72363,0.0732287 3.37324,1.24134 0.705121,1.26969 0.738192,2.2819 0.738192,3.80317 0,1.07599 -0.296458,2.24174 -0.706302,2.96458 -0.879925,1.55552 -2.76025,1.87678 -3.95553,0.969689 -1.20355,-0.912996 -1.5567,-2.73426 -1.5567,-4.28033l0 0zm3.08505 5.72365c3.50907,0 5.49569,-2.576 5.49569,-5.37758 0,-1.23308 -0.0212599,-2.25237 -0.536223,-3.37797 -0.750003,-1.63465 -2.23702,-2.78033 -4.52482,-2.78033 -1.16575,0 -1.88623,0.066142 -2.92442,0.533861 -1.71261,0.770082 -2.58072,2.3693 -2.83938,4.03703l-0.118111 1.24134c-0.0188977,0.275198 0.043701,0.370868 0.0507876,0.604727 0.0401577,1.33583 0.381498,2.48623 1.25079,3.51498 0.400396,0.475986 1.0063,0.88465 1.65591,1.1563 0.6189,0.258663 1.60513,0.44764 2.49096,0.44764l-0.00118111 0z"/>
   <path id="_217675264" class="fil2" d="M124.837 32.5832c0,-1.32875 0.230316,-2.61379 0.966146,-3.72758 0.363781,-0.551577 1.03819,-1.00158 1.87914,-1.08662 2.50867,-0.255119 3.37324,2.4508 3.37324,4.25081 0,1.5567 0.0389766,2.57481 -0.738192,3.97561 -1.24961,2.25355 -5.48034,2.29017 -5.48034,-3.41222l0 0zm-2.31379 -0.346065c0,1.57442 0.00118111,2.55355 0.851579,3.96025 0.465356,0.770082 1.28386,1.42442 2.19922,1.75158 0.335435,0.120473 0.675594,0.227954 1.07363,0.291734 1.95355,0.311812 4.12089,-0.0921264 5.32443,-1.49292 0.225592,-0.264568 0.396852,-0.448821 0.592916,-0.766539 0.701578,-1.13504 0.773626,-1.94647 0.853941,-3.1819 0.0366143,-0.565751 0.00118111,-1.20827 -0.105119,-1.77048 -0.278741,-1.47284 -1.02402,-2.97993 -2.52993,-3.66498 -2.20277,-1.0004 -5.2831,-0.666145 -6.82208,1.05 -0.898823,1.00276 -1.43859,2.426 -1.43859,3.82325z"/>
   <path id="_217675456" class="fil2" d="M156.17 9.16422l0 2.21221c0,0.771263 -0.0472443,1.43741 -0.0472443,2.16733 0,0.727562 -0.0980319,1.41379 -0.0980319,2.12599 0.174804,-0.0129922 0.464175,-0.0826775 0.627168,-0.0826775 0.164174,0 0.453545,0.0696854 0.627168,0.0826775 0,-1.30749 -0.0484254,-2.49214 -0.0484254,-3.81616l0 -3.90356c0.187796,0.112205 2.95631,3.56104 3.17482,3.82206l3.09214 3.89766c0.192521,-0.00472443 0.465356,-0.0744098 0.630712,-0.0791342 0.183072,-0.00472443 0.464175,0.0744098 0.670869,0.0791342 -0.188977,-2.04214 -0.150001,-4.8449 -0.146457,-6.94137 0,-0.291734 0.0507876,-0.481892 0.0507876,-0.822051 -0.00236222,-0.563388 0,-1.12796 0,-1.69135l0.0460632 -1.25906c0.00590554,-0.211418 0.0448821,-0.200788 0.0496065,-0.389766l-0.722838 0.043701c-0.268111,0 -0.285828,-0.043701 -0.530317,-0.043701 0,1.26733 0.0472443,2.38702 0.0472443,3.64372l0 3.72994 -4.85435 -5.95396c-0.139371,-0.166536 -0.24567,-0.307088 -0.379136,-0.481892 -0.255119,-0.333072 -0.499609,-0.610633 -0.742917,-0.9378l-0.964965 0.043701c-0.292915,0 -0.350789,-0.043701 -0.625987,-0.043701 0,0.772444 0.0980319,1.49764 0.0968508,2.25592 -0.00118111,0.798429 0.0472443,1.50946 0.0472443,2.34214l0 0z"/>
   <path id="_217675648" class="fil2" d="M83.6236 6.73704c0.134646,0.108662 0.22441,0.35197 0.324805,0.510239l0.0933075 -0.265749c0.0236222,-0.155906 -0.0283466,-0.119292 0.0637798,-0.237403l0.181891 -0.712208c0.066142,-0.251576 0.140552,-0.444097 0.203151,-0.685043 -1.20119,-0.722838 -1.77166,-0.805515 -3.10513,-0.979138 -1.20827,-0.157087 -2.84175,0.233859 -3.52679,0.607089 -2.03741,1.10906 -2.77206,3.01655 -2.76734,5.10002 0.00590554,2.48505 0.892917,4.28388 2.63505,5.21813 1.663,0.891736 4.21655,0.611814 6.10751,0.0460632 0.272836,-0.0814964 0.537404,-0.178347 0.800791,-0.233859l-0.0129922 -2.22403c0.0448821,-0.297639 0.0129922,-0.794886 0.0129922,-1.11497l0.0484254 -1.12678c-0.263387,0 -0.282285,0.0366143 -0.527955,0.043701 -0.187796,0.00472443 -0.390947,-0.00118111 -0.581105,-0.00118111 -0.191339,0 -0.388584,0.00472443 -0.579924,0.00236222 -0.240946,-0.00354332 -0.334253,-0.0448821 -0.576381,-0.0448821l0.0614176 0.897642c0.0614176,0.406301 0.0342521,2.45789 0.0342521,2.96104 -0.883469,0.53268 -2.44017,0.600003 -3.49135,-0.111024 -0.883469,-0.596459 -1.32048,-1.73623 -1.47048,-2.70946 -0.236222,-1.53426 -0.172442,-3.29883 0.527955,-4.72561 0.153544,-0.311812 0.368506,-0.542128 0.598822,-0.805515 0.920083,-1.06418 3.2008,-1.08544 4.25907,-0.13819 0.118111,0.105119 0.258663,0.217324 0.356695,0.328348 0.114567,0.131103 0.191339,0.305907 0.329529,0.400396l0 0z"/>
   <path id="_217675840" class="fil2" d="M109.606 9.94493l-0.338978 0 0 -3.34017c0,-0.421655 0.0484254,-0.669688 0.0484254,-1.08426 0.196064,-0.0141733 0.120473,-0.043701 0.433467,-0.043701 2.18741,0 1.72914,3.00119 1.27087,3.74411 -0.233859,0.380317 -0.784256,0.722838 -1.41379,0.722838l0 0.00118111zm-2.45907 -0.824413l0 2.21221c0,0.774807 -0.0496065,1.4315 -0.0484254,2.16851 0.00118111,0.737011 -0.0968508,1.41733 -0.0968508,2.16733l1.20591 -0.0885831c0.237403,0.00354332 0.297639,0.0425199 0.578743,0.0460632 0.276379,0.00354332 0.334253,0.0425199 0.625987,0.0425199 0,-0.216143 -0.0484254,-0.29882 -0.0472443,-0.563388 0,-0.338978 -0.0980319,-1.20591 -0.0980319,-1.77757l0 -2.47206c0.192521,0.0141733 0.115749,0.043701 0.240946,0.043701 2.75671,0 4.19529,-0.989768 4.19529,-3.47009 0,-0.86339 -0.250395,-1.75276 -0.94843,-2.27009 -0.779531,-0.575199 -1.70434,-0.591735 -2.81222,-0.592916 -0.441734,0 -0.69331,0.0460632 -1.10906,0.043701l-1.30158 0c-0.26693,0 -0.285828,-0.043701 -0.530317,-0.043701 0,0.786618 0.0980319,1.48465 0.0968508,2.25592 0,0.780712 0.0472443,1.48111 0.0472443,2.29844l0.00118111 0z"/>
   <path id="_217676032" class="fil2" d="M121.511 7.68901c0.135827,0.0897642 0.296458,0.649609 0.368506,0.840949l0.760633 2.30788c0.0507876,0.181891 0.120473,0.311812 0.125197,0.494884l-2.50749 0c0.0236222,-0.252757 0.501971,-1.57087 0.589373,-1.85552 0.160631,-0.526774 0.571656,-1.4315 0.663783,-1.7882l0 0zm-4.00041 7.98075l0.866933 -0.043701c0.243308,0 0.216143,0.0389766 0.434648,0.043701 0.087402,-0.162993 0.191339,-0.584648 0.262206,-0.805515l0.509057 -1.62284c0.0625987,-0.213781 0.223229,-0.62953 0.240946,-0.824413 0.399214,0 0.603546,-0.043701 1.01221,-0.043701l1.44568 0c0.377954,0 0.549215,0.043701 0.91654,0.043701 0.105119,0.40512 0.908272,2.95395 0.91654,3.25277 0.336616,0 0.470081,-0.043701 0.819689,-0.043701l1.01103 0c0.321261,0 0.418112,0.043701 0.724019,0.043701 -0.103937,-0.194883 -0.164174,-0.450002 -0.262206,-0.675594 -0.315356,-0.731106 -0.74646,-1.98308 -1.04646,-2.7886 -0.0850398,-0.231497 -0.17008,-0.461813 -0.264568,-0.715751 -0.178347,-0.481892 -0.329529,-0.933075 -0.505514,-1.40906l-1.22953 -3.53506c-0.14882,-0.408663 -0.608271,-1.94528 -0.741736,-2.19568 -0.329529,0.0248033 -0.152363,0.043701 -0.674413,0.043701 -0.243308,0 -0.216143,-0.0389766 -0.434648,-0.043701l-0.453545 1.45631c-0.160631,0.505514 -0.315356,0.936618 -0.472443,1.43977l-2.55119 7.02995c-0.0826775,0.22441 -0.161812,0.439372 -0.262206,0.674413l-0.261025 0.719295 0 0z"/>
   <path id="_217676224" class="fil2" d="M145.805 7.68901c0.124016,0.0826775 0.141733,0.227954 0.198426,0.385041 0.0531498,0.145276 0.107481,0.28819 0.17008,0.455908 0.125197,0.337797 0.877563,2.49804 0.88465,2.80277l-2.50631 0c0.0413388,-0.446459 1.24725,-3.56458 1.25316,-3.64372l0 0zm-4.00041 7.98075l0.868114 -0.043701c0.240946,0 0.214962,0.0389766 0.433467,0.043701l0.268111 -0.79961c0.0921264,-0.290553 0.175985,-0.546853 0.252757,-0.813783l0.491341 -1.63938c0.399214,0 0.603546,-0.043701 1.01221,-0.043701l1.44686 0c0.377954,0 0.548034,0.043701 0.915359,0.043701l0.963784 3.25277c0.305907,0 0.402758,-0.043701 0.724019,-0.043701l0.963784 0c0.348427,0 0.481892,0.043701 0.819689,0.043701l-1.05473 -2.78151c-0.649609,-1.75513 -1.42087,-3.85277 -2.01379,-5.64806 -0.160631,-0.488979 -0.304726,-0.944886 -0.480711,-1.43268 -0.122835,-0.337797 -0.376773,-1.22481 -0.50079,-1.45749 -0.33071,0.0248033 -0.152363,0.043701 -0.675594,0.043701 -0.240946,0 -0.214962,-0.0389766 -0.433467,-0.043701l-0.451183 1.45749c-0.0897642,0.248033 -0.144095,0.465356 -0.230316,0.705121l-2.78387 7.77523c-0.0897642,0.223229 -0.166536,0.435829 -0.26693,0.669688 -0.103937,0.240946 -0.203151,0.462994 -0.268111,0.713389l0 -0.00118111z"/>
   <path id="_217676416" class="fil2" d="M75.1881 29.7651c0,0.576381 -0.0342521,1.07008 0.185434,1.60985 0.712208,1.75631 3.21025,2.43663 3.86222,3.37797 0.65079,0.938981 0.190158,2.55828 -1.34883,2.55828 -0.585829,0 -1.15276,-0.32008 -1.43268,-0.6189 -0.263387,-0.282285 -0.598822,-0.91654 -0.64016,-1.37599l-0.240946 0c0,0.669688 -0.434648,1.85906 -0.434648,2.29844 0.24567,0.0590554 0.755909,0.737011 2.50749,0.737011 3.776,0 4.33585,-3.81852 3.18427,-5.55357 -0.960241,-1.44686 -3.9071,-1.86497 -3.9071,-3.42403 0,-0.621263 0.128741,-1.16221 0.770082,-1.4315 0.968508,-0.408663 1.97127,0.232678 2.32796,0.897642 0.0519687,0.0980319 0.0980319,0.214962 0.133465,0.315356 0.0755909,0.200788 0.00826775,0.212599 0.287009,0.218505 0,-0.433467 0.424018,-1.45749 0.433467,-1.82127 -0.879925,-0.531498 -1.18111,-0.737011 -2.40946,-0.737011 -1.31694,0 -2.48505,0.709846 -2.9693,1.75158 -0.132284,0.285828 -0.308269,0.822051 -0.308269,1.19764l0 0z"/>
   <path id="_217676608" class="fil2" d="M88.8772 32.3671c0,1.33701 0.152363,2.45198 0.786618,3.58584 1.43859,2.57009 5.10829,2.97639 7.43153,1.72678 0.246852,-0.134646 0.203151,-0.139371 0.262206,-0.414569 0.066142,-0.302364 0.237403,-0.78898 0.244489,-1.08189 -0.422837,0 -0.453545,0.334253 -1.28505,0.751185 -0.588192,0.294096 -1.05945,0.420474 -1.80001,0.420474 -2.44489,0 -3.326,-2.34686 -3.326,-4.59687l0 -0.520869c0,-2.12481 0.889374,-4.42443 3.1819,-4.42443 0.510239,0 0.732287,0.0129922 1.21182,0.166536 0.464175,0.150001 0.953154,0.538585 1.19764,0.918902 0.152363,0.238584 0.209056,0.494884 0.337797,0.73583 0.0885831,-0.0389766 0.0602365,-0.033071 0.193702,-0.043701 0.0637798,-0.686224 0.226773,-1.38308 0.385041,-1.99489 -0.162993,-0.0342521 -0.184253,-0.0755909 -0.321261,-0.144095 -0.12756,-0.0614176 -0.203151,-0.0744098 -0.336616,-0.129922 -2.0882,-0.876382 -4.65002,-0.685043 -6.36971,0.760633 -0.29882,0.251576 -0.864571,0.969689 -1.07126,1.33465 -0.464175,0.814964 -0.721657,2.0256 -0.721657,2.95041l-0.00118111 0z"/>
   <path id="_217676800" class="fil2" d="M132.02 9.12051l0 2.16851c0,0.787799 -0.0484254,1.46221 -0.0484254,2.21221 0.00118111,0.74646 -0.0956697,1.41142 -0.0956697,2.16733 0.649609,0 1.22363,-0.0850398 1.92757,-0.0850398l1.54253 0c0.781893,0 1.43859,0.0850398 2.16851,0.0850398 0,-0.296458 -0.0460632,-0.460632 -0.0507876,-0.69331 -0.00590554,-0.237403 0.0507876,-0.399214 0.0507876,-0.69331 -0.501971,0 -1.05355,0.122835 -1.59095,0.129922l-1.68662 0.0862209c0,-0.275198 -0.0507876,-0.3626 -0.0496065,-0.649609l-0.0472443 -4.9453c0,-0.773626 0.0496065,-1.43032 0.0496065,-2.16733 -0.00236222,-0.737011 0.0956697,-1.41733 0.0956697,-2.16969 -0.359057,0.00826775 -0.701578,0.0862209 -1.39843,0.0862209 -0.408663,0 -0.676775,-0.0791342 -1.01103,-0.0862209 0,0.786618 0.0956697,1.4693 0.0956697,2.25592 0,0.773626 0.0496065,1.48347 0.0496065,2.29844l-0.00118111 0z"/>
   <path id="_217676992" class="fil2" d="M160.122 30.7631l0 3.72876c0,0.659058 -0.0507876,1.20355 -0.0484254,1.82245 0.00354332,0.616538 -0.0956697,1.19056 -0.0956697,1.82127 0.419293,0 0.910634,-0.0897642 1.34883,-0.0885831l1.44568 -0.043701c0.243308,0.0141733 0.367325,0.0460632 0.675594,0.0460632 0.255119,-0.00236222 0.518506,-0.00590554 0.773626,-0.00354332 0.421655,0.00590554 0.966146,0.0897642 1.39607,0.0897642l0 -1.3878c-0.513782,0 -1.72914,0.178347 -2.40828,0.173623 -0.369687,-0.00236222 -0.545672,0.0425199 -0.869295,0.0425199 0,-0.338978 -0.0496065,-0.530317 -0.0496065,-0.822051 -0.00118111,-0.28819 0.00708665,-0.581105 0.00236222,-0.870476 -0.00354332,-0.276379 -0.0496065,-0.486616 -0.0496065,-0.822051 0.00354332,-2.48151 -0.0307088,-4.98782 0.192521,-7.41736 -0.420474,0 -0.779531,0.087402 -1.25316,0.087402 -0.470081,0 -0.792523,-0.087402 -1.20473,-0.087402 0,0.6189 0.0992131,1.21064 0.0956697,1.82245 -0.00236222,0.649609 0.0484254,1.22008 0.0484254,1.90867z"/>
   <path id="_217677184" class="fil2" d="M137.9 21.0473c0,0.571656 0.01063,1.16221 0.40512,1.63111 0.79961,0.949611 2.77678,0.768901 2.77678,-1.45749 0,-0.892917 -0.454726,-1.95119 -1.44568,-1.95119 -0.601184,0 -0.961422,0.0755909 -1.35119,0.562207 -0.214962,0.268111 -0.385041,0.748822 -0.385041,1.21536z"/>
   <path id="_217677376" class="fil2" d="M74.9791 17.9257l90.637 0 0 6.80791 -90.6382 0 0 -6.80791 0.00118111 0zm0 0c-0.102756,0.210237 -0.033071,6.06263 -0.033071,6.85161l90.7197 0 0 -6.89649 -89.9969 0c-0.112205,0 -0.226773,-0.00118111 -0.338978,-0.00236222 -0.0448821,0 -0.147638,0 -0.188977,0.00472443 -0.162993,0.0212599 -0.0413388,-0.0153544 -0.162993,0.0425199l0.00118111 0z"/>
   <path id="_217677568" class="fil2" d="M104.495 21.1336c0.709846,0 1.20591,-0.137009 1.20591,-0.953154 0,-0.805515 -0.595278,-0.824413 -1.20591,-0.824413l0 1.77757z"/>
   <path id="_217677664" class="fil2" d="M119.197 21.7418l1.30158 0c-0.0448821,-0.174804 -0.503152,-1.4067 -0.675594,-1.51772l-0.329529 0.742917c-0.0803153,0.178347 -0.279923,0.587011 -0.296458,0.774807z"/>
   <path id="_217677856" class="fil2" d="M154.435 21.7418l1.30158 0c-0.00590554,-0.22441 -0.173623,-0.556302 -0.262206,-0.762996 -0.1063,-0.253938 -0.250395,-0.50079 -0.316537,-0.754728 -0.14882,0.0980319 -0.321261,0.542128 -0.400396,0.722838 -0.1063,0.250395 -0.207875,0.578743 -0.322442,0.794886l0 0z"/>
   <path id="_217678144" class="fil2" d="M84.1055 6.74413c-0.0909453,0.118111 -0.0389766,0.0814964 -0.0637798,0.238584l-0.0933075 0.265749c-0.0992131,-0.15945 -0.190158,-0.402758 -0.324805,-0.51142 0.0366143,0.140552 0.0909453,0.199607 0.160631,0.33071 0.0968508,0.181891 0.0460632,0.214962 0.272836,0.231497 0,-0.248033 0.0484254,-0.294096 0.0484254,-0.555121l0 0z"/>
   <path id="_217678432" class="fil2" d="M90.3028 19.5296l-0.413388 0 0 -0.520869 0.654334 0 -0.705121 -0.0460632 -0.01063 0.621263c0.192521,-0.0165355 0.324805,0.0236222 0.474805,-0.054331l0 0z"/>
   <rect id="_217678912" class="fil7" x="66.7551" y="2.31698" width="0.460563" height="55.1494"/>
   <path id="_217678768" class="fil8" d="M73.7165 57.0062l0 -7.06775 0.935437 0 0 7.06775 -0.935437 0zm7.62641 -2.47796l0.935437 0.237403c-0.194883,0.766539 -0.550396,1.35237 -1.05827,1.75631 -0.509057,0.403939 -1.13268,0.604727 -1.86851,0.604727 -0.761815,0 -1.3819,-0.154725 -1.85788,-0.464175 -0.477168,-0.310631 -0.84213,-0.759452 -1.09016,-1.34764 -0.248033,-0.588192 -0.37323,-1.22127 -0.37323,-1.89568 0,-0.734649 0.139371,-1.37717 0.421655,-1.92521 0.281104,-0.548034 0.680318,-0.963784 1.20001,-1.24961 0.518506,-0.284647 1.09016,-0.42638 1.71379,-0.42638 0.707484,0 1.30158,0.179528 1.78347,0.539766 0.481892,0.361419 0.818508,0.865752 1.00748,1.5189l-0.920083 0.218505c-0.164174,-0.516144 -0.401577,-0.889374 -0.713389,-1.1256 -0.311812,-0.233859 -0.702759,-0.35197 -1.17638,-0.35197 -0.544491,0 -0.995674,0.129922 -1.36064,0.390947 -0.366143,0.261025 -0.622444,0.610633 -0.768901,1.05 -0.14882,0.43701 -0.222048,0.889374 -0.222048,1.35591 0,0.601184 0.087402,1.12441 0.261025,1.57324 0.177166,0.44764 0.448821,0.785437 0.817327,1.00748 0.370868,0.222048 0.770082,0.33071 1.20237,0.33071 0.523231,0 0.964965,-0.151182 1.32875,-0.452364 0.363781,-0.303545 0.610633,-0.752366 0.738192,-1.34646l0 0.00118111zm1.7693 0.207875l0.883469 -0.0779531c0.0401577,0.354332 0.137009,0.643704 0.289371,0.870476 0.153544,0.226773 0.390947,0.409844 0.712208,0.549215 0.321261,0.140552 0.68268,0.210237 1.08308,0.210237 0.357876,0 0.670869,-0.0531498 0.946067,-0.158268 0.271655,-0.107481 0.475986,-0.252757 0.610633,-0.43701 0.132284,-0.185434 0.199607,-0.386222 0.199607,-0.604727 0,-0.222048 -0.0637798,-0.414569 -0.193702,-0.581105 -0.128741,-0.166536 -0.340159,-0.303545 -0.636617,-0.41575 -0.188977,-0.0744098 -0.607089,-0.188977 -1.25788,-0.346065 -0.648428,-0.155906 -1.10315,-0.302364 -1.363,-0.440553 -0.337797,-0.177166 -0.589373,-0.396852 -0.755909,-0.656696 -0.165355,-0.263387 -0.248033,-0.556302 -0.248033,-0.881106 0,-0.355513 0.102756,-0.689767 0.303545,-0.999217 0.203151,-0.310631 0.499609,-0.546853 0.887012,-0.707484 0.390947,-0.15945 0.822051,-0.240946 1.29686,-0.240946 0.525593,0 0.985044,0.0850398 1.38662,0.253938 0.399214,0.166536 0.707484,0.41575 0.922445,0.744098 0.214962,0.325986 0.333072,0.698035 0.348427,1.1126l-0.896461 0.0696854c-0.0496065,-0.44764 -0.212599,-0.786618 -0.49016,-1.01457 -0.278741,-0.226773 -0.688586,-0.34134 -1.23071,-0.34134 -0.566932,0 -0.977957,0.103937 -1.2378,0.310631 -0.258663,0.207875 -0.388584,0.457089 -0.388584,0.748822 0,0.255119 0.0921264,0.464175 0.275198,0.627168 0.180709,0.165355 0.649609,0.333072 1.41024,0.503152 0.760633,0.172442 1.28032,0.323624 1.56497,0.452364 0.411026,0.190158 0.71457,0.431104 0.910634,0.719295 0.197245,0.291734 0.294096,0.627168 0.294096,1.00512 0,0.377954 -0.107481,0.732287 -0.323624,1.06418 -0.214962,0.333072 -0.524412,0.590554 -0.928351,0.775988 -0.402758,0.184253 -0.857484,0.276379 -1.36064,0.276379 -0.638979,0 -1.17638,-0.0921264 -1.60749,-0.279923 -0.433467,-0.185434 -0.771263,-0.465356 -1.01811,-0.839768 -0.24567,-0.37323 -0.375592,-0.797248 -0.386222,-1.26969l-0.00118111 -0.00118111zm6.92247 2.27009l0 -7.06775 5.10947 0 0 0.835043 -4.17522 0 0 2.16379 3.91065 0 0 0.829138 -3.91065 0 0 2.4071 4.33821 0 0 0.833862 -5.27247 0 0 -0.00118111zm14.3505 -2.47796l0.935437 0.237403c-0.194883,0.766539 -0.549215,1.35237 -1.05827,1.75631 -0.509057,0.403939 -1.13268,0.604727 -1.86851,0.604727 -0.761815,0 -1.3819,-0.154725 -1.85788,-0.464175 -0.477168,-0.310631 -0.840949,-0.759452 -1.09016,-1.34764 -0.248033,-0.588192 -0.37323,-1.22127 -0.37323,-1.89568 0,-0.734649 0.140552,-1.37717 0.421655,-1.92521 0.281104,-0.548034 0.680318,-0.963784 1.20119,-1.24961 0.517325,-0.284647 1.08898,-0.42638 1.71379,-0.42638 0.707484,0 1.30158,0.179528 1.78347,0.539766 0.481892,0.361419 0.816145,0.865752 1.00512,1.5189l-0.918902 0.218505c-0.164174,-0.516144 -0.400396,-0.889374 -0.713389,-1.1256 -0.311812,-0.233859 -0.702759,-0.35197 -1.17756,-0.35197 -0.542128,0 -0.994493,0.129922 -1.36064,0.390947 -0.364962,0.261025 -0.621263,0.610633 -0.76772,1.05 -0.14882,0.43701 -0.222048,0.889374 -0.222048,1.35591 0,0.601184 0.087402,1.12441 0.262206,1.57324 0.175985,0.44764 0.446459,0.785437 0.816145,1.00748 0.370868,0.222048 0.771263,0.33071 1.20237,0.33071 0.524412,0 0.966146,-0.151182 1.32993,-0.452364 0.3626,-0.303545 0.608271,-0.752366 0.737011,-1.34646l0 0.00118111zm1.65355 -0.0826775c0,-0.94843 0.262206,-1.65001 0.790161,-2.10592 0.440553,-0.377954 0.976776,-0.569294 1.60985,-0.569294 0.705121,0 1.28032,0.230316 1.72678,0.692129 0.44764,0.460632 0.669688,1.09843 0.669688,1.91221 0,0.659058 -0.100394,1.17638 -0.296458,1.55316 -0.197245,0.379136 -0.485435,0.67205 -0.86339,0.879925 -0.377954,0.210237 -0.78898,0.312994 -1.23662,0.312994 -0.71457,0 -1.29568,-0.227954 -1.73741,-0.688586 -0.444097,-0.459451 -0.662601,-1.12205 -0.662601,-1.98662l0 0zm0.891736 0c0,0.656696 0.142914,1.14686 0.428742,1.47284 0.285828,0.328348 0.647247,0.49016 1.07953,0.49016 0.431104,0 0.78898,-0.164174 1.07599,-0.491341 0.285828,-0.325986 0.428742,-0.826775 0.428742,-1.49883 0,-0.634255 -0.142914,-1.11378 -0.431104,-1.43977 -0.289371,-0.325986 -0.646066,-0.488979 -1.07363,-0.488979 -0.432285,0 -0.793704,0.162993 -1.07953,0.487798 -0.285828,0.323624 -0.428742,0.813783 -0.428742,1.4693l0 -0.00118111zm8.24295 2.56064l0 -0.647247c-0.323624,0.509057 -0.800791,0.761815 -1.4315,0.761815 -0.407482,0 -0.783074,-0.111024 -1.12441,-0.336616 -0.342521,-0.22441 -0.607089,-0.537404 -0.796067,-0.943705 -0.187796,-0.401577 -0.282285,-0.864571 -0.282285,-1.39016 0,-0.510239 0.0862209,-0.974414 0.2563,-1.39016 0.17008,-0.416931 0.42638,-0.73583 0.766539,-0.956697 0.34134,-0.222048 0.721657,-0.333072 1.14331,-0.333072 0.307088,0 0.582286,0.066142 0.823232,0.196064 0.240946,0.129922 0.43701,0.29882 0.588192,0.507876l0 -2.53584 0.861028 0 0 7.06775 -0.804334 0zm-2.74135 -2.55592c0,0.656696 0.137009,1.14804 0.413388,1.47166 0.27756,0.324805 0.603546,0.486616 0.980319,0.486616 0.377954,0 0.699216,-0.157087 0.964965,-0.465356 0.265749,-0.308269 0.398033,-0.783074 0.398033,-1.41969 0,-0.701578 -0.134646,-1.21536 -0.40512,-1.54135 -0.270474,-0.329529 -0.601184,-0.492522 -0.998036,-0.492522 -0.385041,0 -0.707484,0.158268 -0.966146,0.472443 -0.257481,0.312994 -0.387403,0.81024 -0.387403,1.4882zm8.41657 0.907091l0.896461 0.111024c-0.141733,0.524412 -0.402758,0.931894 -0.785437,1.22008 -0.382679,0.289371 -0.870476,0.433467 -1.46457,0.433467 -0.750003,0 -1.34292,-0.230316 -1.78229,-0.692129 -0.438191,-0.459451 -0.656696,-1.10788 -0.656696,-1.93938 0,-0.861028 0.220867,-1.53072 0.663783,-2.00552 0.444097,-0.474805 1.0193,-0.71457 1.72678,-0.71457 0.68268,0 1.24253,0.233859 1.67599,0.699216 0.434648,0.465356 0.651971,1.12323 0.651971,1.96654 0,0.0531498 0,0.129922 -0.00472443,0.232678l-3.81734 0c0.0307088,0.562207 0.190158,0.993312 0.475986,1.29095 0.287009,0.300001 0.642523,0.448821 1.07008,0.448821 0.317718,0 0.589373,-0.0826775 0.814964,-0.250395 0.225592,-0.166536 0.403939,-0.433467 0.533861,-0.79961l0.00118111 -0.00118111zm-2.84765 -1.40316l2.8571 0c-0.0377954,-0.429923 -0.147638,-0.753547 -0.328348,-0.967327 -0.275198,-0.334253 -0.634255,-0.501971 -1.07245,-0.501971 -0.399214,0 -0.734649,0.133465 -1.00748,0.400396 -0.270474,0.265749 -0.420474,0.622444 -0.450002,1.0689l0.00118111 0zm7.81893 -1.07953l0 -0.987406 0.988587 0 0 0.987406 -0.988587 0zm0 4.13151l0 -0.988587 0.988587 0 0 0.988587 -0.988587 0zm5.31617 0l0 -7.06775 0.936618 0 0 3.50553 3.51025 -3.50553 1.26733 0 -2.96576 2.86419 3.09568 4.20356 -1.23426 0 -2.51694 -3.57639 -1.1563 1.12796 0 2.44844 -0.936618 0 0 0zm5.84766 0l2.71537 -7.06775 1.00748 0 2.89253 7.06775 -1.06536 0 -0.825594 -2.14017 -2.95513 0 -0.774807 2.14017 -0.994493 0 0 0zm2.03977 -2.90198l2.39765 0 -0.739373 -1.9571c-0.22441,-0.594097 -0.392128,-1.08189 -0.50079,-1.46575 -0.0897642,0.453545 -0.216143,0.902366 -0.381498,1.35119l-0.775988 2.07166zm7.07129 0.780712l0 -0.871658 2.66812 0 0 0.871658 -2.66812 0zm10.689 1.28859l0 0.833862 -4.67128 0c-0.00708665,-0.210237 0.0259844,-0.411026 0.100394,-0.603546 0.119292,-0.318899 0.308269,-0.630712 0.571656,-0.941343 0.262206,-0.307088 0.641342,-0.663783 1.13504,-1.0689 0.76772,-0.62953 1.28859,-1.12914 1.5567,-1.49764 0.270474,-0.366143 0.406301,-0.715751 0.406301,-1.04174 0,-0.344883 -0.122835,-0.635436 -0.368506,-0.870476 -0.248033,-0.236222 -0.568113,-0.355513 -0.962603,-0.355513 -0.418112,0 -0.751185,0.125197 -1.00276,0.377954 -0.251576,0.249214 -0.377954,0.596459 -0.381498,1.03819l-0.890555 -0.0885831c0.0602365,-0.667326 0.290553,-1.1752 0.688586,-1.52245 0.398033,-0.349608 0.934256,-0.524412 1.60631,-0.524412 0.677956,0 1.213,0.190158 1.60985,0.56457 0.395671,0.376773 0.592916,0.843311 0.592916,1.39843 0,0.283466 -0.0566932,0.561026 -0.174804,0.835043 -0.114567,0.271655 -0.307088,0.561026 -0.575199,0.86339 -0.269293,0.302364 -0.71457,0.715751 -1.3382,1.24253 -0.518506,0.438191 -0.85276,0.734649 -1.00158,0.890555 -0.147638,0.154725 -0.270474,0.310631 -0.368506,0.470081l3.46773 0 0 0zm4.19884 0.832681l-0.868114 0 0 -5.52995c-0.207875,0.200788 -0.481892,0.399214 -0.82087,0.597641 -0.340159,0.199607 -0.644885,0.350789 -0.914177,0.448821l0 -0.837405c0.485435,-0.230316 0.908272,-0.505514 1.27323,-0.830319 0.361419,-0.324805 0.620082,-0.638979 0.772444,-0.946067l0.557483 0 0 7.09728zm6.72405 -5.33624l-0.861028 0.0673231c-0.0779531,-0.34134 -0.186615,-0.589373 -0.327167,-0.741736 -0.23504,-0.249214 -0.525593,-0.372049 -0.869295,-0.372049 -0.276379,0 -0.519687,0.0779531 -0.727562,0.231497 -0.272836,0.199607 -0.488979,0.491341 -0.646066,0.87402 -0.157087,0.380317 -0.239765,0.925988 -0.246852,1.63229 0.210237,-0.316537 0.465356,-0.55394 0.766539,-0.708665 0.301182,-0.152363 0.620082,-0.230316 0.949611,-0.230316 0.581105,0 1.07363,0.212599 1.47875,0.637798 0.406301,0.42638 0.610633,0.975595 0.610633,1.65119 0,0.444097 -0.0968508,0.855122 -0.28819,1.23662 -0.191339,0.380317 -0.454726,0.674413 -0.787799,0.875201 -0.334253,0.203151 -0.713389,0.303545 -1.13741,0.303545 -0.724019,0 -1.31221,-0.264568 -1.76812,-0.798429 -0.45827,-0.531498 -0.685043,-1.40788 -0.685043,-2.62796 0,-1.36654 0.251576,-2.35985 0.75709,-2.97993 0.438191,-0.539766 1.03111,-0.811421 1.77757,-0.811421 0.555121,0 1.00985,0.155906 1.36536,0.470081 0.356695,0.30945 0.568113,0.741736 0.638979,1.29095l0 0zm-3.54214 3.04608c0,0.29882 0.0649609,0.585829 0.191339,0.859846 0.126379,0.272836 0.303545,0.47953 0.531498,0.622444 0.230316,0.142914 0.4689,0.216143 0.719295,0.216143 0.367325,0 0.68268,-0.14882 0.943705,-0.444097 0.264568,-0.296458 0.395671,-0.698035 0.395671,-1.20473 0,-0.488979 -0.129922,-0.87402 -0.389766,-1.1563 -0.259844,-0.279923 -0.588192,-0.420474 -0.982682,-0.420474 -0.393309,0 -0.7252,0.140552 -0.999217,0.420474 -0.271655,0.282285 -0.409844,0.651971 -0.409844,1.1067l0 0z"/>
  </g>
 </g>
</svg>
