<svg xmlns="http://www.w3.org/2000/svg" xmlns:xlink="http://www.w3.org/1999/xlink" fill="none" version="1.1" width="135.7894744873047" height="51.578948974609375" viewBox="0 0 135.7894744873047 51.578948974609375"><defs><clipPath id="master_svg0_90_3095"><rect x="0" y="0" width="135.7894744873047" height="51.578948974609375" rx="0"/></clipPath><linearGradient x1="0.05230876803398132" y1="-1.826094627380371" x2="0.6394161581993103" y2="1.7971442937850952" id="master_svg1_90_3101"><stop offset="0%" stop-color="#FF9832" stop-opacity="1"/><stop offset="48.958298563957214%" stop-color="#FF6948" stop-opacity="1"/><stop offset="100%" stop-color="#A0218C" stop-opacity="1"/></linearGradient></defs><g clip-path="url(#master_svg0_90_3095)"><g><path d="M25.030912890625,14.316564580078126L24.991212890625,16.675354580078125L22.968612890625,16.675354580078125L22.968612890625,20.429844580078125C22.730712890625,20.901544580078124,22.175512890625,21.897544580078126,21.303012890625,23.417644580078125L14.263712890625,35.68334458007813C13.087112890625,35.68334458007813,11.547112890625,34.759444580078124,9.643502890625,32.91174458007812C7.554842890625,30.893644580078124,6.510492890625,28.652744580078124,6.510492890625,26.189144580078125C6.510492890625,24.931144580078126,6.920312890625,23.758244580078124,7.739912890625,22.670644580078125C8.110062890625,22.172644580078124,8.295132890625,21.799244580078124,8.295132890625,21.550244580078125C8.295132890625,21.091544580078125,7.905152890625,20.862244580078126,7.125222890625,20.862244580078126C6.543572890625,20.862244580078126,5.981712890625,21.098144580078127,5.439742890625,21.569844580078126C5.241432890625,21.740244580078127,4.811812890625,22.205444580078122,4.150842890625,22.965444580078128L1.592892890625,20.665644580078123C2.465372890625,19.931844580078128,3.318022890625,19.479744580078126,4.150842890625,19.309344580078125C4.560622890625,19.217644580078122,5.089402890625,19.171744580078126,5.737172890625,19.171744580078126C9.319602890625,19.132444580078126,11.110812890625,21.026044580078125,11.110812890625,24.852544580078124C11.110812890625,25.363644580078127,11.051312890625,26.130244580078124,10.932412890625,27.152344580078125C10.826612890625,28.174444580078124,10.773812890625,28.941044580078124,10.773812890625,29.452144580078127C10.773812890625,31.522644580078126,11.143912890625,32.649644580078125,11.884212890625,32.83314458007813C12.294012890625,32.83314458007813,12.776512890625,32.33514458007812,13.331712890625,31.339244580078127L19.379612890625,20.508344580078123L19.379612890625,16.675354580078125L0.105712890625,16.675354580078125L0.105712890625,14.316564580078126L25.030912890625,14.316564580078126ZM44.246212890625,16.675354580078125L31.039912890625,16.675354580078125L31.039912890625,19.820444580078124C31.092712890625,19.820444580078124,31.145612890625,19.846644580078127,31.198512890625,19.899044580078126C31.251412890625,19.951444580078125,31.297612890625,19.977644580078127,31.337312890625,19.977644580078127C31.231512890625,19.977644580078127,31.172012890625,19.971144580078125,31.158812890625,19.958044580078123C31.158812890625,19.892544580078123,32.143712890625,19.682844580078125,34.113312890625,19.329044580078126C34.840412890625,19.197944580078126,35.560912890625,19.132444580078126,36.274712890625,19.132444580078126C39.249112890625,19.132444580078126,41.159312890625,19.958044580078123,42.005312890625,21.609144580078123C42.574012890625,22.709944580078123,42.857812890625,24.931144580078126,42.857812890625,28.272744580078125L42.857812890625,35.840544580078124C42.580312890625,35.735744580078126,41.529412890625,35.30984458007812,39.705212890625,34.562944580078124C39.705212890625,34.14354458007813,39.619212890625,33.874844580078125,39.447412890625,33.75694458007813C38.746712890625,34.16324458007813,38.171712890625,34.471144580078125,37.722312890625,34.68084458007813C36.294612890625,35.349144580078125,34.635512890625,35.68334458007813,32.745112890625,35.68334458007813C30.140912890625,35.68334458007813,28.131612890625,34.87084458007813,26.717112890625,33.24584458007813C26.029712890625,32.45964458007812,25.686012890625,31.581644580078127,25.686012890625,30.611944580078124C25.686012890625,29.524244580078125,26.228012890625,28.443144580078126,27.312012890625,27.368544580078126C29.413812890625,25.284944580078125,32.024712890625,24.243144580078123,35.144512890625,24.243144580078123C37.034912890625,24.243144580078123,38.555112890625,24.675644580078124,39.705212890625,25.540444580078123L39.705212890625,23.732144580078124C39.123512890625,22.998244580078126,38.555112890625,22.506844580078123,37.999912890625,22.257844580078125C37.457912890625,22.008844580078126,36.710912890625,21.897544580078126,35.759212890625,21.923644580078125C33.630912890625,21.963044580078126,31.681012890625,22.349544580078124,29.909612890625,23.083444580078122C29.116412890625,23.411044580078126,28.343112890625,23.705844580078125,27.589612890625,23.967944580078125L27.589612890625,22.513344580078126C27.761412890625,22.369244580078124,28.012612890625,22.153044580078124,28.343112890625,21.864744580078124C28.396012890625,21.799244580078124,28.429012890625,21.759844580078123,28.442312890625,21.746744580078126L28.442312890625,16.675354580078125L24.377312890625,16.675354580078125L24.377312890625,14.316564580078126L44.246212890625,14.316564580078126L44.246212890625,16.675354580078125ZM39.705212890625,29.118044580078124C39.705212890625,28.541444580078124,39.011112890625,28.023744580078127,37.623112890625,27.565144580078126C36.473012890625,27.185144580078124,35.514612890625,26.995044580078126,34.747912890625,26.995044580078126C31.958612890625,26.995044580078126,29.724512890625,27.991044580078125,28.045712890625,29.982944580078126C27.371512890625,30.782244580078125,27.034412890625,31.437544580078125,27.034412890625,31.948544580078124C27.312012890625,32.905244580078126,28.402612890625,33.38354458007812,30.306212890625,33.38354458007812C32.765012890625,33.38354458007812,35.012312890625,32.77414458007813,37.048112890625,31.555444580078124C38.819512890625,30.493944580078125,39.705212890625,29.681444580078125,39.705212890625,29.118044580078124ZM63.520712890625,16.675354580078125L61.359412890625,16.675354580078125L61.359412890625,24.125244580078125C60.579412890625,23.666544580078124,59.455912890625,23.273444580078127,57.988412890625,22.945844580078123C56.613612890625,22.631344580078125,55.423612890625,22.474044580078125,54.419012890625,22.474044580078125C52.000112890625,22.474044580078125,49.970912890625,22.899944580078127,48.331712890625,23.751744580078125C47.406112890625,24.236644580078124,46.943812890625,24.872144580078125,46.943812890625,25.658444580078125C46.943812890625,26.706844580078126,47.498812890625,27.230944580078123,48.609212890625,27.230944580078123C49.283512890625,27.230944580078123,50.162512890625,27.034444580078127,51.246312890625,26.641244580078126C51.947212890625,26.392244580078124,52.846212890625,26.077744580078125,53.943112890625,25.697744580078126C54.405812890625,25.540444580078123,55.225712890625,25.461944580078125,56.402112890625,25.461944580078125C58.688912890625,25.461944580078125,60.394112890625,26.162944580078126,61.518112890625,27.565144580078126C62.060012890625,28.233444580078125,62.331112890625,29.019744580078125,62.331112890625,29.923944580078125C62.331112890625,32.007544580078125,61.009212890625,33.64554458007812,58.365312890625,34.838044580078126C57.268012890625,35.33604458007812,56.223612890625,35.617744580078124,55.232012890625,35.68334458007813C56.183812890625,36.62684458007813,57.089512890625,37.09864458007813,57.948612890625,37.09864458007813C58.226112890625,37.09864458007813,58.523912890625,37.05924458007813,58.841212890625,36.98064458007812L60.843812890625,40.22404458007812C60.433912890625,40.57784458007813,59.594612890625,40.754744580078125,58.325512890625,40.754744580078125C57.294212890625,40.754744580078125,56.422012890625,40.40744458007813,55.707912890625,39.71294458007812C55.324612890625,39.33294458007812,54.782812890625,38.540044580078124,54.082212890625,37.33444458007813C53.487012890625,36.299244580078124,52.991312890625,35.775044580078124,52.594912890625,35.76194458007812C50.149412890625,35.69644458007812,48.265712890625,35.25744458007813,46.943812890625,34.44494458007813C46.110812890625,33.93384458007813,45.694212890625,33.232744580078126,45.694212890625,32.341644580078125C45.694212890625,31.240944580078125,46.355312890625,30.690544580078125,47.677312890625,30.690544580078125C48.166312890625,30.690544580078125,49.184112890625,31.070544580078124,50.731112890625,31.830644580078125C52.290712890625,32.577544580078126,53.572912890625,32.951044580078126,54.577612890625,32.951044580078126C56.586912890625,32.951044580078126,58.471112890625,32.479244580078124,60.229112890625,31.535744580078124C61.088312890625,31.077144580078127,61.518112890625,30.513644580078125,61.518112890625,29.845344580078127C61.518112890625,28.849344580078125,60.724912890625,28.351444580078127,59.138612890625,28.351444580078127C58.649212890625,28.351444580078127,57.069612890625,28.705244580078126,54.399512890625,29.412844580078126C52.826312890625,29.832144580078126,51.861412890625,30.041844580078124,51.504312890625,30.041844580078124C49.402412890625,30.041844580078124,47.670512890625,29.059044580078126,46.309212890625,27.093344580078124C45.648112890625,26.149844580078124,45.317712890625,25.134244580078125,45.317712890625,24.046644580078127C45.304612890625,21.831944580078122,46.831212890625,20.338044580078126,49.898112890625,19.564844580078123C51.154112890625,19.250344580078124,52.337312890625,19.093144580078125,53.447712890625,19.093144580078125C54.716812890625,19.093144580078125,56.514612890625,19.401044580078125,58.841212890625,20.017044580078124L58.841212890625,16.675354580078125L43.057112890625,16.675354580078125L43.057112890625,14.316564580078126L63.520712890625,14.316564580078126L63.520712890625,16.675354580078125ZM80.059112890625,16.675354580078125L70.025412890625,16.675354580078125L70.025412890625,32.498944580078124C70.025412890625,32.94444458007813,70.171012890625,33.376944580078124,70.461612890625,33.79634458007813C70.765712890625,34.254944580078124,71.135912890625,34.484244580078126,71.572012890625,34.484244580078126C73.541612890625,34.484244580078126,74.526812890625,32.46614458007812,74.526812890625,28.430044580078125L78.512112890625,30.690544580078125C76.992212890625,34.032144580078125,74.638912890625,35.69644458007812,71.453112890625,35.68334458007813C69.602412890625,35.670244580078126,68.161612890625,34.83154458007812,67.130312890625,33.167244580078126C66.681012890625,32.446544580078125,66.456012890625,31.725744580078125,66.456012890625,31.005044580078124L66.456012890625,16.675354580078125L62.312112890625,16.675354580078125L62.312112890625,14.316564580078126L66.456012890625,14.316564580078126L66.456012890625,7.711944580078125L70.025412890625,10.169034580078126L70.025412890625,14.316564580078126L80.059112890625,14.316564580078126L80.059112890625,16.675354580078125ZM98.837812890625,16.675354580078125L78.790812890625,16.675354580078125L78.790812890625,14.316564580078126L98.837812890625,14.316564580078126L98.837812890625,16.675354580078125ZM97.192212890625,23.732144580078124C97.192212890625,24.505244580078124,96.722712890625,25.376644580078125,95.784012890625,26.346444580078124C94.990812890625,27.172044580078126,94.158312890625,27.787944580078126,93.285612890625,28.194144580078124L90.311412890625,24.852544580078124C91.210312890625,24.773844580078126,92.063112890625,24.446344580078126,92.869412890625,23.869744580078127C93.794512890625,23.214444580078123,94.257312890625,22.467544580078126,94.257312890625,21.628844580078123C94.257312890625,21.183244580078124,93.966712890625,20.803244580078125,93.385012890625,20.488744580078126C92.882512890625,20.200444580078127,92.386712890625,20.056344580078125,91.897712890625,20.056344580078125C90.879912890625,20.056344580078125,89.789412890625,20.541144580078125,88.626112890625,21.510944580078124C86.259712890625,23.476544580078127,85.076512890625,25.651944580078126,85.076512890625,28.036944580078124L85.076512890625,36.37134458007813L81.269312890625,34.405644580078125L81.269312890625,19.859744580078125L85.116312890625,19.859744580078125L85.116312890625,21.353644580078125C85.684412890625,20.790144580078127,86.861212890625,20.200444580078127,88.645512890625,19.584544580078123C89.518212890625,19.283144580078122,90.417112890625,19.132444580078126,91.342312890625,19.132444580078126C93.259412890625,19.132444580078126,94.885112890625,19.859744580078125,96.220512890625,21.314344580078124C96.868212890625,22.021944580078127,97.192212890625,22.827844580078125,97.192212890625,23.732144580078124ZM117.061712890625,16.675354580078125L103.855712890625,16.675354580078125L103.855712890625,19.820444580078124C103.907712890625,19.820444580078124,103.960712890625,19.846644580078127,104.013712890625,19.899044580078126C104.066712890625,19.951444580078125,104.113712890625,19.977644580078127,104.152712890625,19.977644580078127C104.046712890625,19.977644580078127,103.987712890625,19.971144580078125,103.974712890625,19.958044580078123C103.974712890625,19.892544580078123,104.959712890625,19.682844580078125,106.928712890625,19.329044580078126C107.655712890625,19.197944580078126,108.376712890625,19.132444580078126,109.089712890625,19.132444580078126C112.064712890625,19.132444580078126,113.974712890625,19.958044580078123,114.820712890625,21.609144580078123C115.389712890625,22.709944580078123,115.673712890625,24.931144580078126,115.673712890625,28.272744580078125L115.673712890625,35.840544580078124C115.395712890625,35.735744580078126,114.344712890625,35.30984458007812,112.520712890625,34.562944580078124C112.520712890625,34.14354458007813,112.434712890625,33.874844580078125,112.262712890625,33.75694458007813C111.562712890625,34.16324458007813,110.987712890625,34.471144580078125,110.537712890625,34.68084458007813C109.109712890625,35.349144580078125,107.450712890625,35.68334458007813,105.560712890625,35.68334458007813C102.956712890625,35.68334458007813,100.946712890625,34.87084458007813,99.532812890625,33.24584458007813C98.845412890625,32.45964458007812,98.501512890625,31.581644580078127,98.501512890625,30.611944580078124C98.501512890625,29.524244580078125,99.043412890625,28.443144580078126,100.127712890625,27.368544580078126C102.229712890625,25.284944580078125,104.839712890625,24.243144580078123,107.959712890625,24.243144580078123C109.850712890625,24.243144580078123,111.370712890625,24.675644580078124,112.520712890625,25.540444580078123L112.520712890625,23.732144580078124C111.938712890625,22.998244580078126,111.370712890625,22.506844580078123,110.814712890625,22.257844580078125C110.273712890625,22.008844580078126,109.526712890625,21.897544580078126,108.574712890625,21.923644580078125C106.446712890625,21.963044580078126,104.496712890625,22.349544580078124,102.724712890625,23.083444580078122C101.931712890625,23.411044580078126,101.158712890625,23.705844580078125,100.404712890625,23.967944580078125L100.404712890625,22.513344580078126C100.576712890625,22.369244580078124,100.827712890625,22.153044580078124,101.158712890625,21.864744580078124C101.211712890625,21.799244580078124,101.244712890625,21.759844580078123,101.257712890625,21.746744580078126L101.257712890625,16.675354580078125L97.192612890625,16.675354580078125L97.192612890625,14.316564580078126L117.061712890625,14.316564580078126L117.061712890625,16.675354580078125ZM112.520712890625,29.118044580078124C112.520712890625,28.541444580078124,111.826712890625,28.023744580078127,110.438712890625,27.565144580078126C109.288712890625,27.185144580078124,108.329712890625,26.995044580078126,107.563712890625,26.995044580078126C104.773712890625,26.995044580078126,102.539712890625,27.991044580078125,100.860712890625,29.982944580078126C100.186712890625,30.782244580078125,99.850012890625,31.437544580078125,99.850012890625,31.948544580078124C100.127712890625,32.905244580078126,101.217712890625,33.38354458007812,103.121712890625,33.38354458007812C105.580712890625,33.38354458007812,107.827712890625,32.77414458007813,109.863712890625,31.555444580078124C111.634712890625,30.493944580078125,112.520712890625,29.681444580078125,112.520712890625,29.118044580078124ZM135.562712890625,16.675354580078125L122.356712890625,16.675354580078125L122.356712890625,19.820444580078124C122.409712890625,19.820444580078124,122.462712890625,19.846644580078127,122.515712890625,19.899044580078126C122.568712890625,19.951444580078125,122.614712890625,19.977644580078127,122.654712890625,19.977644580078127C122.548712890625,19.977644580078127,122.488712890625,19.971144580078125,122.475712890625,19.958044580078123C122.475712890625,19.892544580078123,123.460712890625,19.682844580078125,125.429712890625,19.329044580078126C126.157712890625,19.197944580078126,126.877712890625,19.132444580078126,127.591712890625,19.132444580078126C130.565712890625,19.132444580078126,132.476712890625,19.958044580078123,133.322712890625,21.609144580078123C133.890712890625,22.709944580078123,134.174712890625,24.931144580078126,134.174712890625,28.272744580078125L134.174712890625,35.840544580078124C133.897712890625,35.735744580078126,132.846712890625,35.30984458007812,131.021712890625,34.562944580078124C131.021712890625,34.14354458007813,130.935712890625,33.874844580078125,130.764712890625,33.75694458007813C130.063712890625,34.16324458007813,129.488712890625,34.471144580078125,129.039712890625,34.68084458007813C127.611712890625,35.349144580078125,125.952712890625,35.68334458007813,124.061712890625,35.68334458007813C121.457712890625,35.68334458007813,119.448712890625,34.87084458007813,118.033712890625,33.24584458007813C117.346712890625,32.45964458007812,117.002712890625,31.581644580078127,117.002712890625,30.611944580078124C117.002712890625,29.524244580078125,117.544712890625,28.443144580078126,118.628712890625,27.368544580078126C120.730712890625,25.284944580078125,123.341712890625,24.243144580078123,126.461712890625,24.243144580078123C128.351712890625,24.243144580078123,129.871712890625,24.675644580078124,131.021712890625,25.540444580078123L131.021712890625,23.732144580078124C130.440712890625,22.998244580078126,129.871712890625,22.506844580078123,129.316712890625,22.257844580078125C128.774712890625,22.008844580078126,128.027712890625,21.897544580078126,127.075712890625,21.923644580078125C124.947712890625,21.963044580078126,122.997712890625,22.349544580078124,121.226712890625,23.083444580078122C120.433712890625,23.411044580078126,119.659712890625,23.705844580078125,118.906712890625,23.967944580078125L118.906712890625,22.513344580078126C119.078712890625,22.369244580078124,119.329712890625,22.153044580078124,119.659712890625,21.864744580078124C119.712712890625,21.799244580078124,119.745712890625,21.759844580078123,119.758712890625,21.746744580078126L119.758712890625,16.675354580078125L115.694712890625,16.675354580078125L115.694712890625,14.316564580078126L135.562712890625,14.316564580078126L135.562712890625,16.675354580078125ZM131.021712890625,29.118044580078124C131.021712890625,28.541444580078124,130.327712890625,28.023744580078127,128.939712890625,27.565144580078126C127.789712890625,27.185144580078124,126.831712890625,26.995044580078126,126.064712890625,26.995044580078126C123.275712890625,26.995044580078126,121.041712890625,27.991044580078125,119.362712890625,29.982944580078126C118.688712890625,30.782244580078125,118.351712890625,31.437544580078125,118.351712890625,31.948544580078124C118.628712890625,32.905244580078126,119.719712890625,33.38354458007812,121.622712890625,33.38354458007812C124.081712890625,33.38354458007812,126.328712890625,32.77414458007813,128.364712890625,31.555444580078124C130.135712890625,30.493944580078125,131.021712890625,29.681444580078125,131.021712890625,29.118044580078124Z" fill="url(#master_svg1_90_3101)" fill-opacity="1"/></g><g><path d="M25.8118896484375,47.0140139453125C25.8118896484375,46.6148039453125,25.9046576484375,46.2566839453125,26.0902356484375,45.9396639453125C26.2797496484375,45.6226409453125,26.5344086484375,45.3760689453125,26.8542096484375,45.1999469453125C27.1779496484375,45.0200489453125,27.5313396484375,44.9298891453125,27.9142996484375,44.9298891453125C28.3525496484375,44.9298891453125,28.7414296484375,45.0376609453125,29.0809896484375,45.2527839453125C29.4244796484375,45.4641309453125,29.6732196484375,45.7656379453125,29.8271996484375,46.1568839453125L29.0158496484375,46.1568839453125C28.9092396484375,45.9417639453125,28.7611896484375,45.7811539453125,28.5716696484375,45.6754779453125C28.3821596484375,45.5698039453125,28.1630296484375,45.5169669453125,27.9142996484375,45.5169669453125C27.6418796484375,45.5169669453125,27.3990596484375,45.5777739453125,27.1858596484375,45.6989609453125C26.9726596484375,45.8201509453125,26.8048436484375,45.9945939453125,26.6824646484375,46.2214639453125C26.5640196484375,46.4483239453125,26.5047956484375,46.7125039453125,26.5047956484375,47.0140139453125C26.5047956484375,47.3155239453125,26.5640196484375,47.5797039453125,26.6824646484375,47.8065739453125C26.8048436484375,48.0334339453125,26.9726596484375,48.2095539453125,27.1858596484375,48.3349439453125C27.3990596484375,48.4561339453125,27.6418796484375,48.5169339453125,27.9142996484375,48.5169339453125C28.1630296484375,48.5169339453125,28.3821596484375,48.4640939453125,28.5716696484375,48.3584239453125C28.7611896484375,48.2527539453125,28.9092396484375,48.0921439453125,29.0158496484375,47.8770139453125L29.8271996484375,47.8770139453125C29.6732196484375,48.2682639453125,29.4244796484375,48.5697739453125,29.0809896484375,48.7811239453125C28.7414296484375,48.9924639453125,28.3525496484375,49.0981439453125,27.9142996484375,49.0981439453125C27.5273596484375,49.0981439453125,27.1740096484375,49.0100739453125,26.8542096484375,48.8339539453125C26.5344086484375,48.6540539453125,26.2797496484375,48.4053839453125,26.0902356484375,48.0883639453125C25.9046576484375,47.7713439453125,25.8118896484375,47.4132339453125,25.8118896484375,47.0140139453125ZM33.975379648437496,49.1040139453125C33.5924096484375,49.1040139453125,33.2390696484375,49.0159539453125,32.9152896484375,48.8398239453125C32.595479648437504,48.6599339453125,32.3408296484375,48.4112639453125,32.1513096484375,48.0942439453125C31.9657696484375,47.7734439453125,31.8729596484375,47.4132339453125,31.8729596484375,47.0140139453125C31.8729596484375,46.6148039453125,31.9657696484375,46.2566839453125,32.1513096484375,45.9396639453125C32.3408296484375,45.6226409453125,32.595479648437504,45.3760689453125,32.9152896484375,45.1999469453125C33.2390696484375,45.0200489453125,33.5924096484375,44.9298891453125,33.975379648437496,44.9298891453125C34.3623096484375,44.9298891453125,34.7156596484375,45.0200489453125,35.0354596484375,45.1999469453125C35.3592396484375,45.3760689453125,35.613899648437496,45.6226409453125,35.7994396484375,45.9396639453125C35.9849896484375,46.2566839453125,36.0777896484375,46.6148039453125,36.0777896484375,47.0140139453125C36.0777896484375,47.4132339453125,35.9849896484375,47.7734439453125,35.7994396484375,48.0942439453125C35.613899648437496,48.4112639453125,35.3592396484375,48.6599339453125,35.0354596484375,48.8398239453125C34.7156596484375,49.0159539453125,34.3623096484375,49.1040139453125,33.975379648437496,49.1040139453125ZM33.975379648437496,48.5228039453125C34.2477996484375,48.5228039453125,34.4906196484375,48.4620039453125,34.7038196484375,48.3408139453125C34.9170196484375,48.2154239453125,35.0828396484375,48.0393039453125,35.2012896484375,47.8124439453125C35.3237096484375,47.5813839453125,35.384879648437504,47.3155239453125,35.384879648437504,47.0140139453125C35.384879648437504,46.7125039453125,35.3237096484375,46.4483239453125,35.2012896484375,46.2214639453125C35.0828396484375,45.9945939453125,34.9170196484375,45.8201509453125,34.7038196484375,45.6989609453125C34.4906196484375,45.5777739453125,34.2477996484375,45.5169669453125,33.975379648437496,45.5169669453125C33.7029496484375,45.5169669453125,33.4601396484375,45.5777739453125,33.246939648437504,45.6989609453125C33.0337296484375,45.8201509453125,32.8659596484375,45.9945939453125,32.7435396484375,46.2214639453125C32.6250896484375,46.4483239453125,32.5658696484375,46.7125039453125,32.5658696484375,47.0140139453125C32.5658696484375,47.3155239453125,32.6250896484375,47.5813839453125,32.7435396484375,47.8124439453125C32.8659596484375,48.0393039453125,33.0337296484375,48.2154239453125,33.246939648437504,48.3408139453125C33.4601396484375,48.4620039453125,33.7029496484375,48.5228039453125,33.975379648437496,48.5228039453125ZM39.578889648437496,49.1040139453125C39.302589648437504,49.1040139453125,39.0537896484375,49.0570439453125,38.8326896484375,48.9631139453125C38.6115896484375,48.8654039453125,38.4378896484375,48.7282839453125,38.311589648437504,48.5521539453125C38.1851896484375,48.3760339453125,38.1219896484375,48.1705539453125,38.1219896484375,47.9357239453125L38.8445896484375,47.9357239453125C38.860389648437504,48.1118539453125,38.929489648437496,48.2565239453125,39.0517896484375,48.3701639453125C39.1781896484375,48.4838039453125,39.3538896484375,48.5404139453125,39.578889648437496,48.5404139453125C39.8118896484375,48.5404139453125,39.9934896484375,48.4854839453125,40.1237896484375,48.3760339453125C40.2540896484375,48.2623939453125,40.3191896484375,48.1177239453125,40.3191896484375,47.9415939453125C40.3191896484375,47.8044739453125,40.2777896484375,47.6929339453125,40.1947896484375,47.6069639453125C40.1158896484375,47.5209939453125,40.0151896484375,47.4543239453125,39.8927896484375,47.4073539453125C39.7743896484375,47.3603939453125,39.6084896484375,47.3096539453125,39.3952896484375,47.2547139453125C39.1268896484375,47.1842639453125,38.9077896484375,47.1138139453125,38.7379896484375,47.0433639453125C38.5720896484375,46.9691439453125,38.4299896484375,46.8555039453125,38.311589648437504,46.7028639453125C38.1930896484375,46.5502239453125,38.1338896484375,46.3468439453125,38.1338896484375,46.0923039453125C38.1338896484375,45.8574739453125,38.1930896484375,45.6519949453125,38.311589648437504,45.4758719453125C38.4299896484375,45.2997499453125,38.5957896484375,45.1647219453125,38.8089896484375,45.0707899453125C39.022189648437504,44.9768551453125,39.2689896484375,44.9298891453125,39.5492896484375,44.9298891453125C39.9480896484375,44.9298891453125,40.2737896484375,45.0296949453125,40.526489648437504,45.2293009453125C40.783089648437496,45.4251309453125,40.9252896484375,45.6951889453125,40.9528896484375,46.0394639453125L40.206689648437504,46.0394639453125C40.1947896484375,45.8906039453125,40.1237896484375,45.7635419453125,39.9934896484375,45.6578649453125C39.8631896484375,45.5521919453125,39.6913896484375,45.4993549453125,39.4781896484375,45.4993549453125C39.284789648437496,45.4993549453125,39.1268896484375,45.5484199453125,39.0044896484375,45.6461239453125C38.8820896484375,45.7438309453125,38.8208896484375,45.8847289453125,38.8208896484375,46.0688239453125C38.8208896484375,46.1942039453125,38.8583896484375,46.2977839453125,38.9333896484375,46.3799739453125C39.0123896484375,46.4583939453125,39.1110896484375,46.5208739453125,39.2294896484375,46.5678339453125C39.3479896484375,46.6148039453125,39.509789648437504,46.6655439453125,39.7150896484375,46.7204739453125C39.9875896484375,46.7947039453125,40.2086896484375,46.8693439453125,40.3783896484375,46.9435639453125C40.5521896484375,47.0177939453125,40.6981896484375,47.1335239453125,40.8166896484375,47.2899439453125C40.9390896484375,47.4425839453125,41.0002896484375,47.6480539453125,41.0002896484375,47.9063739453125C41.0002896484375,48.1139439453125,40.9429896484375,48.3093639453125,40.8284896484375,48.4934539453125C40.7179896484375,48.6775439453125,40.5541896484375,48.8259839453125,40.3369896484375,48.9396339453125C40.1237896484375,49.0490739453125,39.871089648437504,49.1040139453125,39.578889648437496,49.1040139453125ZM45.9366896484375,44.9827259453125L45.9366896484375,45.5287089453125L44.8409896484375,45.5287089453125L44.8409896484375,49.0629139453125L44.1658896484375,49.0629139453125L44.1658896484375,45.5287089453125L43.0643896484375,45.5287089453125L43.0643896484375,44.9827259453125L45.9366896484375,44.9827259453125ZM48.770089648437505,44.9827259453125L48.770089648437505,47.5834839453125C48.770089648437505,47.8925339453125,48.8512896484375,48.1256839453125,49.0128896484375,48.2821039453125C49.1786896484375,48.4385139453125,49.4079896484375,48.5169339453125,49.699889648437505,48.5169339453125C49.9959896484375,48.5169339453125,50.2251896484375,48.4385139453125,50.3867896484375,48.2821039453125C50.5526896484375,48.1256839453125,50.6355896484375,47.8925339453125,50.6355896484375,47.5834839453125L50.6355896484375,44.9827259453125L51.3106896484375,44.9827259453125L51.3106896484375,47.5717439453125C51.3106896484375,47.9042739453125,51.237989648437505,48.1860739453125,51.0915896484375,48.4171339453125C50.945589648437505,48.648183945312496,50.7501896484375,48.8201139453125,50.5052896484375,48.9337639453125C50.260789648437495,49.0474039453125,49.9899896484375,49.1040139453125,49.693889648437505,49.1040139453125C49.397789648437495,49.1040139453125,49.1274896484375,49.0474039453125,48.8825896484375,48.9337639453125C48.6418896484375,48.8201139453125,48.4501896484375,48.648183945312496,48.3080896484375,48.4171339453125C48.1659896484375,48.1860739453125,48.0948896484375,47.9042739453125,48.0948896484375,47.5717439453125L48.0948896484375,44.9827259453125L48.770089648437505,44.9827259453125ZM58.0053896484375,44.9827259453125L58.0053896484375,49.0629139453125L57.3302896484375,49.0629139453125L57.3302896484375,46.2684239453125L56.0747896484375,49.0629139453125L55.6068896484375,49.0629139453125L54.3454896484375,46.2684239453125L54.3454896484375,49.0629139453125L53.6702896484375,49.0629139453125L53.6702896484375,44.9827259453125L54.3987896484375,44.9827259453125L55.8437896484375,48.1823039453125L57.282889648437504,44.9827259453125L58.0053896484375,44.9827259453125ZM61.0485896484375,45.5228379453125L61.0485896484375,46.7204739453125L62.4699896484375,46.7204739453125L62.4699896484375,47.2664639453125L61.0485896484375,47.2664639453125L61.0485896484375,48.5169339453125L62.6475896484375,48.5169339453125L62.6475896484375,49.0629139453125L60.3734896484375,49.0629139453125L60.3734896484375,44.9768551453125L62.6475896484375,44.9768551453125L62.6475896484375,45.5228379453125L61.0485896484375,45.5228379453125ZM66.3160896484375,49.1040139453125C66.03938964843749,49.1040139453125,65.7906896484375,49.0570439453125,65.56988964843751,48.9631139453125C65.3485896484375,48.8654039453125,65.1747896484375,48.7282839453125,65.0486896484375,48.5521539453125C64.9221896484375,48.3760339453125,64.8591896484375,48.1705539453125,64.8591896484375,47.9357239453125L65.5816896484375,47.9357239453125C65.5973896484375,48.1118539453125,65.6662896484375,48.2565239453125,65.78898964843751,48.3701639453125C65.9150896484375,48.4838039453125,66.0909896484375,48.5404139453125,66.3160896484375,48.5404139453125C66.5486896484375,48.5404139453125,66.7305896484375,48.4854839453125,66.8608896484375,48.3760339453125C66.9911896484375,48.2623939453125,67.0563896484375,48.1177239453125,67.0563896484375,47.9415939453125C67.0563896484375,47.8044739453125,67.0148896484375,47.6929339453125,66.93198964843751,47.6069639453125C66.8528896484375,47.5209939453125,66.75218964843751,47.4543239453125,66.6299896484375,47.4073539453125C66.5114896484375,47.3603939453125,66.3456896484375,47.3096539453125,66.1324896484375,47.2547139453125C65.86388964843749,47.1842639453125,65.64468964843749,47.1138139453125,65.4750896484375,47.0433639453125C65.3092896484375,46.9691439453125,65.1671896484375,46.8555039453125,65.0486896484375,46.7028639453125C64.93028964843751,46.5502239453125,64.8709896484375,46.3468439453125,64.8709896484375,46.0923039453125C64.8709896484375,45.8574739453125,64.93028964843751,45.6519949453125,65.0486896484375,45.4758719453125C65.1671896484375,45.2997499453125,65.33298964843749,45.1647219453125,65.54618964843749,45.0707899453125C65.75938964843749,44.9768551453125,66.00598964843749,44.9298891453125,66.28648964843751,44.9298891453125C66.6849896484375,44.9298891453125,67.0106896484375,45.0296949453125,67.2635896484375,45.2293009453125C67.5199896484375,45.4251309453125,67.6620896484375,45.6951889453125,67.69008964843749,46.0394639453125L66.9437896484375,46.0394639453125C66.93198964843751,45.8906039453125,66.8608896484375,45.7635419453125,66.7305896484375,45.6578649453125C66.6003896484375,45.5521919453125,66.42858964843751,45.4993549453125,66.21538964843751,45.4993549453125C66.0216896484375,45.4993549453125,65.86388964843749,45.5484199453125,65.7415896484375,45.6461239453125C65.6188896484375,45.7438309453125,65.5579896484375,45.8847289453125,65.5579896484375,46.0688239453125C65.5579896484375,46.1942039453125,65.5952896484375,46.2977839453125,65.6705896484375,46.3799739453125C65.7491896484375,46.4583939453125,65.8481896484375,46.5208739453125,65.9666896484375,46.5678339453125C66.0850896484375,46.6148039453125,66.2466896484375,46.6655439453125,66.4522896484375,46.7204739453125C66.7246896484375,46.7947039453125,66.9454896484375,46.8693439453125,67.11558964843749,46.9435639453125C67.28898964843751,47.0177939453125,67.4353896484375,47.1335239453125,67.5537896484375,47.2899439453125C67.6760896484375,47.4425839453125,67.7373896484375,47.6480539453125,67.7373896484375,47.9063739453125C67.7373896484375,48.1139439453125,67.6798896484375,48.3093639453125,67.5656896484375,48.4934539453125C67.4548896484375,48.6775439453125,67.29108964843749,48.8259839453125,67.0740896484375,48.9396339453125C66.8608896484375,49.0490739453125,66.6079896484375,49.1040139453125,66.3160896484375,49.1040139453125ZM76.2138896484375,49.0629139453125L75.70458964843749,48.5580239453125C75.5069896484375,48.7538639453125,75.2916896484375,48.9006339453125,75.05908964843749,48.9983339453125C74.8259896484375,49.0922739453125,74.5653896484375,49.1392339453125,74.2772896484375,49.1392339453125C73.9849896484375,49.1392339453125,73.72648964843751,49.0884939453125,73.5014896484375,48.9865939453125C73.27648964843749,48.8846939453125,73.1025896484375,48.7400239453125,72.98028964843749,48.5521539453125C72.8576896484375,48.3605139453125,72.7966896484375,48.1391039453125,72.7966896484375,47.8887639453125C72.7966896484375,47.6069639453125,72.8774896484375,47.3566139453125,73.0395896484375,47.1373039453125C73.20118964843749,46.9142139453125,73.44228964843751,46.7380939453125,73.7620896484375,46.6089339453125C73.6473896484375,46.4718039453125,73.5665896484375,46.3447439453125,73.5192896484375,46.2273339453125C73.4718896484375,46.1061439453125,73.4481896484375,45.9727939453125,73.4481896484375,45.8281199453125C73.4481896484375,45.6482229453125,73.4934896484375,45.4876139453125,73.58438964843751,45.3467159453125C73.6791896484375,45.2058179453125,73.81328964843749,45.0942729453125,73.98708964843749,45.0120799453125C74.16058964843751,44.9298891453125,74.3618896484375,44.8887939453125,74.5911896484375,44.8887939453125C74.8238896484375,44.8887939453125,75.02138964843749,44.9336643453125,75.1833896484375,45.0238209453125C75.3491896484375,45.1097869453125,75.4714896484375,45.2293009453125,75.5505896484375,45.3819399453125C75.63348964843749,45.5345799453125,75.66688964843749,45.7048309453125,75.6512896484375,45.8926939453125L74.9760896484375,45.8926939453125C74.97998964843751,45.7480249453125,74.9443896484375,45.6364809453125,74.8695896484375,45.5580629453125C74.79418964843751,45.4758719453125,74.6918896484375,45.4347769453125,74.56158964843749,45.4347769453125C74.4312896484375,45.4347769453125,74.3246896484375,45.4737769453125,74.2417896484375,45.5521919453125C74.16268964843749,45.6264159453125,74.12328964843749,45.7186719453125,74.12328964843749,45.8281199453125C74.12328964843749,45.9337939453125,74.1529896484375,46.0394639453125,74.2121896484375,46.1451439453125C74.2751896484375,46.2470439453125,74.3838896484375,46.3799739453125,74.5378896484375,46.5443539453125L75.62758964843749,47.6187039453125L76.0480896484375,46.9318239453125L76.77648964843749,46.9318239453125L76.2434896484375,47.8359239453125L76.0954896484375,48.0766239453125L77.0962896484375,49.0629139453125L76.2138896484375,49.0629139453125ZM74.2772896484375,48.5697739453125C74.6482896484375,48.5697739453125,74.9760896484375,48.4192239453125,75.2603896484375,48.1177239453125L74.1706896484375,47.031623945312504C73.70458964843749,47.2157239453125,73.4718896484375,47.4933239453125,73.4718896484375,47.8652739453125C73.4718896484375,48.0648839453125,73.54678964843751,48.2330439453125,73.69688964843749,48.3701639453125C73.84668964843749,48.5030939453125,74.0403896484375,48.5697739453125,74.2772896484375,48.5697739453125ZM82.7135896484375,45.5228379453125L82.7135896484375,46.7204739453125L84.1349896484375,46.7204739453125L84.1349896484375,47.2664639453125L82.7135896484375,47.2664639453125L82.7135896484375,48.5169339453125L84.3125896484375,48.5169339453125L84.3125896484375,49.0629139453125L82.03848964843749,49.0629139453125L82.03848964843749,44.9768551453125L84.3125896484375,44.9768551453125L84.3125896484375,45.5228379453125L82.7135896484375,45.5228379453125ZM90.1722896484375,44.9827259453125L88.6265896484375,49.0629139453125L87.8447896484375,49.0629139453125L86.2931896484375,44.9827259453125L87.0156896484375,44.9827259453125L88.2356896484375,48.3760339453125L89.4615896484375,44.9827259453125L90.1722896484375,44.9827259453125ZM92.8922896484375,45.5228379453125L92.8922896484375,46.7204739453125L94.3136896484375,46.7204739453125L94.3136896484375,47.2664639453125L92.8922896484375,47.2664639453125L92.8922896484375,48.5169339453125L94.4912896484375,48.5169339453125L94.4912896484375,49.0629139453125L92.2171896484375,49.0629139453125L92.2171896484375,44.9768551453125L94.4912896484375,44.9768551453125L94.4912896484375,45.5228379453125L92.8922896484375,45.5228379453125ZM100.1851896484375,49.0629139453125L99.5100896484375,49.0629139453125L97.4786896484375,46.0159839453125L97.4786896484375,49.0629139453125L96.8035896484375,49.0629139453125L96.8035896484375,44.9768551453125L97.4786896484375,44.9768551453125L99.5100896484375,48.0179239453125L99.5100896484375,44.9768551453125L100.1851896484375,44.9768551453125L100.1851896484375,49.0629139453125ZM105.2114896484375,44.9827259453125L105.2114896484375,45.5287089453125L104.1158896484375,45.5287089453125L104.1158896484375,49.0629139453125L103.4407896484375,49.0629139453125L103.4407896484375,45.5287089453125L102.3391896484375,45.5287089453125L102.3391896484375,44.9827259453125L105.2114896484375,44.9827259453125ZM108.7318896484375,49.1040139453125C108.4556896484375,49.1040139453125,108.2068896484375,49.0570439453125,107.9856896484375,48.9631139453125C107.7648896484375,48.8654039453125,107.5909896484375,48.7282839453125,107.4644896484375,48.5521539453125C107.3384896484375,48.3760339453125,107.2749896484375,48.1705539453125,107.2749896484375,47.9357239453125L107.9974896484375,47.9357239453125C108.0135896484375,48.1118539453125,108.0825896484375,48.2565239453125,108.2047896484375,48.3701639453125C108.3312896484375,48.4838039453125,108.5068896484375,48.5404139453125,108.7318896484375,48.5404139453125C108.9649896484375,48.5404139453125,109.1464896484375,48.4854839453125,109.2767896484375,48.3760339453125C109.4069896484375,48.2623939453125,109.4721896484375,48.1177239453125,109.4721896484375,47.9415939453125C109.4721896484375,47.8044739453125,109.4306896484375,47.6929339453125,109.3477896484375,47.6069639453125C109.2690896484375,47.5209939453125,109.1683896484375,47.4543239453125,109.0457896484375,47.4073539453125C108.9272896484375,47.3603939453125,108.7614896484375,47.3096539453125,108.5482896484375,47.2547139453125C108.2800896484375,47.1842639453125,108.0609896484375,47.1138139453125,107.8908896484375,47.0433639453125C107.7250896484375,46.9691439453125,107.5829896484375,46.8555039453125,107.4644896484375,46.7028639453125C107.3460896484375,46.5502239453125,107.2868896484375,46.3468439453125,107.2868896484375,46.0923039453125C107.2868896484375,45.8574739453125,107.3460896484375,45.6519949453125,107.4644896484375,45.4758719453125C107.5829896484375,45.2997499453125,107.7487896484375,45.1647219453125,107.9619896484375,45.0707899453125C108.1751896484375,44.9768551453125,108.4221896484375,44.9298891453125,108.7022896484375,44.9298891453125C109.1011896484375,44.9298891453125,109.4268896484375,45.0296949453125,109.6794896484375,45.2293009453125C109.9361896484375,45.4251309453125,110.0783896484375,45.6951889453125,110.1058896484375,46.0394639453125L109.3596896484375,46.0394639453125C109.3477896484375,45.8906039453125,109.2767896484375,45.7635419453125,109.1464896484375,45.6578649453125C109.0161896484375,45.5521919453125,108.8443896484375,45.4993549453125,108.6311896484375,45.4993549453125C108.4378896484375,45.4993549453125,108.2800896484375,45.5484199453125,108.1573896484375,45.6461239453125C108.0351896484375,45.7438309453125,107.9737896484375,45.8847289453125,107.9737896484375,46.0688239453125C107.9737896484375,46.1942039453125,108.0114896484375,46.2977839453125,108.0863896484375,46.3799739453125C108.1654896484375,46.4583939453125,108.2639896484375,46.5208739453125,108.3824896484375,46.5678339453125C108.5008896484375,46.6148039453125,108.6628896484375,46.6655439453125,108.8680896484375,46.7204739453125C109.1404896484375,46.7947039453125,109.3617896484375,46.8693439453125,109.5313896484375,46.9435639453125C109.7052896484375,47.0177939453125,109.8511896484375,47.1335239453125,109.9696896484375,47.2899439453125C110.0922896484375,47.4425839453125,110.1531896484375,47.6480539453125,110.1531896484375,47.9063739453125C110.1531896484375,48.1139439453125,110.0960896484375,48.3093639453125,109.9814896484375,48.4934539453125C109.8710896484375,48.6775439453125,109.7073896484375,48.8259839453125,109.4898896484375,48.9396339453125C109.2767896484375,49.0490739453125,109.0241896484375,49.1040139453125,108.7318896484375,49.1040139453125Z" fill="#01042D" fill-opacity="1"/></g></g></svg>